fontCallback.success({"glyphs":{"S":{"x_min":21.015625,"x_max":923.609375,"ha":1000,"o":"m 923 981 l 881 767 q 730 823 804 804 q 584 842 655 842 q 432 811 487 842 q 378 726 378 780 q 402 672 378 692 q 501 635 426 653 l 608 608 q 805 510 742 574 q 868 344 868 446 q 742 79 868 179 q 406 -20 617 -20 q 211 -1 308 -20 q 21 53 113 16 l 62 273 q 237 194 152 220 q 405 169 322 169 q 551 205 495 169 q 607 299 607 242 q 581 357 607 336 q 472 400 556 378 l 365 426 q 189 518 247 455 q 132 682 132 581 q 253 935 132 840 q 579 1031 374 1031 q 747 1018 661 1031 q 923 981 834 1006 "},"¦":{"x_min":176,"x_max":330,"ha":507,"o":"m 330 971 l 330 457 l 176 457 l 176 971 l 330 971 m 330 277 l 330 -237 l 176 -237 l 176 277 l 330 277 "},"/":{"x_min":-134,"x_max":602.34375,"ha":507,"o":"m 445 1013 l 602 1013 l 23 -128 l -134 -128 l 445 1013 "},"₢":{"x_min":50.1875,"x_max":968.5,"ha":966,"o":"m 607 177 q 668 194 636 183 q 828 271 739 219 l 787 47 q 619 -2 699 14 q 467 -19 539 -19 q 163 92 277 -19 q 50 388 50 204 q 86 617 50 510 q 192 813 122 725 q 391 974 275 918 q 642 1030 507 1030 q 789 1012 716 1030 q 940 955 863 993 l 900 746 q 778 818 840 795 q 647 841 717 841 q 403 720 501 841 q 304 419 304 600 q 365 236 304 302 q 406 201 383 215 l 494 683 l 698 683 l 676 566 q 777 665 716 631 q 911 699 837 699 q 936 698 923 699 q 968 695 950 697 l 933 497 q 886 516 911 510 q 831 523 860 523 q 701 470 752 523 q 632 314 650 416 l 607 177 "},"y":{"x_min":0,"x_max":954,"ha":905,"o":"m 91 760 l 320 760 l 425 233 l 694 760 l 954 760 l 473 -72 q 324 -256 392 -212 q 147 -300 255 -300 l 0 -300 l 25 -141 l 101 -141 q 194 -120 161 -141 q 252 -50 227 -100 l 275 -9 l 91 760 "},"฿":{"x_min":50.859375,"x_max":944.078125,"ha":1032,"o":"m 437 -204 l 327 -204 l 366 0 l 50 0 l 223 891 l 539 891 l 571 1055 l 681 1055 l 649 890 q 882 834 812 883 q 938 655 962 778 q 883 544 925 590 q 774 476 841 499 q 884 397 850 455 q 900 255 916 339 q 768 63 875 126 q 476 0 663 1 l 437 -204 m 396 149 l 441 383 l 367 383 l 322 149 l 396 149 m 550 381 l 506 151 q 588 179 556 157 q 644 267 632 208 q 622 354 655 325 q 550 381 599 375 m 472 539 l 508 728 l 434 728 l 398 539 l 472 539 m 617 723 l 582 543 q 631 563 610 549 q 675 634 666 587 q 658 704 684 679 q 617 723 643 718 "},"":{"x_min":22.375,"x_max":900,"ha":954,"o":"m 598 558 q 494 604 574 604 q 360 546 414 604 q 285 379 307 488 q 277 290 277 335 q 302 200 277 246 q 406 153 326 153 q 540 211 486 153 q 614 379 593 269 q 623 467 623 423 q 598 558 623 512 m 455 1055 l 900 1055 l 870 906 l 468 906 q 352 854 352 906 q 383 803 352 829 q 529 777 415 777 q 801 687 725 777 q 878 480 878 596 q 867 379 878 433 q 700 86 831 191 q 373 -19 569 -19 q 99 71 177 -19 q 22 278 22 162 q 32 379 22 325 q 240 700 74 594 q 164 807 171 769 q 158 864 158 845 q 246 1010 158 956 q 455 1055 319 1055 "},"Á":{"x_min":-90,"x_max":960,"ha":1075,"o":"m 682 184 l 278 184 l 177 0 l -90 0 l 482 1013 l 780 1013 l 960 0 l 711 0 l 682 184 m 376 368 l 648 368 l 587 758 l 376 368 m 701 1288 l 892 1288 l 675 1109 l 535 1109 l 701 1288 "},"g":{"x_min":28.265625,"x_max":948,"ha":994,"o":"m 581 128 q 462 31 522 62 q 330 0 402 0 q 126 83 201 0 q 52 310 52 166 q 78 463 52 386 q 153 608 104 540 q 290 733 212 690 q 456 777 367 777 q 590 745 536 777 q 682 647 645 714 l 703 760 l 948 760 l 819 99 q 651 -202 780 -104 q 293 -300 522 -300 q 157 -288 222 -300 q 28 -255 92 -277 l 64 -66 q 179 -120 121 -102 q 297 -139 237 -139 q 483 -87 418 -139 q 570 76 547 -36 l 581 128 m 513 602 q 364 521 423 602 q 305 318 305 440 q 336 212 305 248 q 429 176 368 176 q 578 256 518 176 q 638 457 638 337 q 606 564 638 527 q 513 602 574 602 "},"²":{"x_min":62,"x_max":598,"ha":608,"o":"m 286 567 l 542 567 l 520 453 l 62 453 l 83 556 l 330 737 q 411 810 385 776 q 438 872 438 844 q 415 915 438 899 q 354 931 393 931 q 258 915 308 931 q 160 870 209 899 l 185 995 q 292 1022 241 1013 q 389 1031 342 1031 q 544 994 490 1031 q 598 889 598 957 q 561 785 598 835 q 443 677 524 734 l 286 567 "},"ë":{"x_min":50,"x_max":889,"ha":942,"o":"m 873 351 l 865 313 l 297 313 q 296 301 297 308 q 296 289 296 293 q 340 177 296 214 q 473 141 384 141 q 635 164 550 141 q 814 233 720 187 l 776 44 q 599 -4 687 11 q 421 -20 512 -20 q 146 62 243 -20 q 50 294 50 144 q 80 462 50 381 q 170 612 111 544 q 337 735 240 693 q 553 778 435 778 q 798 695 707 778 q 889 475 889 613 q 885 417 889 447 q 873 351 881 387 m 643 463 q 646 480 645 471 q 648 498 648 490 q 615 585 648 553 q 527 617 583 617 q 406 577 456 617 q 330 463 356 538 l 643 463 m 396 1075 l 558 1075 l 524 908 l 365 908 l 396 1075 m 666 1075 l 826 1075 l 792 908 l 633 908 l 666 1075 "},"Î":{"x_min":29,"x_max":611,"ha":517,"o":"m 226 1013 l 487 1013 l 289 0 l 29 0 l 226 1013 m 271 1288 l 507 1288 l 611 1109 l 495 1109 l 384 1218 l 227 1109 l 106 1109 l 271 1288 "},"Ꙅ":{"x_min":-11.171875,"x_max":883.90625,"ha":1000,"o":"m 194 980 q 384 1018 293 1005 q 558 1030 475 1030 q 823 949 741 1030 q 876 716 905 868 q 768 524 852 596 q 526 421 684 453 l 420 398 q 288 352 324 378 q 243 279 252 326 q 273 198 233 226 q 398 169 313 169 q 578 195 482 169 q 780 273 674 221 l 737 52 q 533 -1 634 16 q 336 -19 432 -19 q 48 62 132 -19 q -2 311 -34 143 q 107 507 23 438 q 367 611 192 577 l 483 633 q 600 672 565 649 q 642 735 634 695 q 613 815 653 790 q 480 841 573 841 q 326 822 409 841 q 153 766 243 803 l 194 980 "},"e":{"x_min":50,"x_max":889,"ha":942,"o":"m 873 351 l 865 313 l 297 313 q 296 301 297 308 q 296 289 296 293 q 340 177 296 214 q 473 141 384 141 q 635 164 550 141 q 814 233 720 187 l 776 44 q 599 -4 687 11 q 421 -20 512 -20 q 146 62 243 -20 q 50 294 50 144 q 80 462 50 381 q 170 612 111 544 q 337 735 240 693 q 553 778 435 778 q 798 695 707 778 q 889 475 889 613 q 885 417 889 447 q 873 351 881 387 m 643 463 q 646 480 645 471 q 648 498 648 490 q 615 585 648 553 q 527 617 583 617 q 406 577 456 617 q 330 463 356 538 l 643 463 "},"Ã":{"x_min":-90,"x_max":960,"ha":1075,"o":"m 682 184 l 278 184 l 177 0 l -90 0 l 482 1013 l 780 1013 l 960 0 l 711 0 l 682 184 m 376 368 l 648 368 l 587 758 l 376 368 m 638 1143 l 605 1168 q 577 1185 588 1181 q 554 1190 566 1190 q 512 1168 529 1190 q 486 1109 494 1146 l 394 1109 q 456 1242 411 1195 q 565 1289 500 1289 q 612 1280 590 1289 q 658 1254 634 1272 l 693 1227 q 717 1213 704 1218 q 740 1209 729 1209 q 784 1229 766 1209 q 809 1289 802 1250 l 903 1289 q 840 1155 885 1202 q 733 1109 796 1109 q 685 1116 707 1109 q 638 1143 664 1123 "},"J":{"x_min":-231,"x_max":487,"ha":517,"o":"m 226 1013 l 487 1013 l 309 98 q 155 -188 270 -99 q -178 -278 40 -278 l -231 -278 l -192 -81 l -151 -81 q -19 -35 -71 -81 q 48 98 31 10 l 226 1013 "},"»":{"x_min":79,"x_max":818,"ha":903,"o":"m 79 92 l 112 264 l 345 419 l 172 569 l 201 721 l 486 469 l 462 343 l 79 92 m 411 92 l 444 264 l 677 419 l 502 569 l 532 721 l 818 469 l 794 343 l 411 92 "},"ꙮ":{"x_min":32.4375,"x_max":1302.3125,"ha":1335,"o":"m 746 14 l 845 14 l 824 -90 l 725 -90 l 746 14 m 351 14 l 451 14 l 430 -90 l 330 -90 l 351 14 m 903 826 l 1003 826 l 982 720 l 883 720 l 903 826 m 508 826 l 608 826 l 588 720 l 488 720 l 508 826 m 233 421 l 333 421 l 312 315 l 212 315 l 233 421 m 1022 421 l 1122 421 l 1102 315 l 1001 315 l 1022 421 m 393 497 q 306 543 366 543 q 202 497 246 543 q 142 372 158 451 q 153 246 126 292 q 240 200 179 200 q 344 246 300 200 q 404 372 388 292 q 393 497 419 451 m 669 902 q 582 948 642 948 q 477 902 522 948 q 417 777 433 856 q 428 652 402 697 q 516 606 455 606 q 620 652 576 606 q 679 777 663 697 q 669 902 695 856 m 1063 902 q 976 948 1037 948 q 872 902 916 948 q 812 777 828 856 q 823 652 796 697 q 910 606 849 606 q 1014 652 970 606 q 1074 777 1058 697 q 1063 902 1089 856 m 1182 497 q 1096 543 1156 543 q 991 497 1035 543 q 931 372 946 451 q 942 246 915 292 q 1029 200 969 200 q 1133 246 1089 200 q 1192 372 1177 292 q 1182 497 1208 451 m 787 497 q 700 543 760 543 q 596 497 640 543 q 536 372 552 451 q 547 246 520 292 q 634 200 573 200 q 738 246 694 200 q 797 372 781 292 q 787 497 813 451 m 511 91 q 425 137 485 137 q 320 91 364 137 q 260 -34 276 45 q 271 -159 244 -113 q 358 -205 298 -205 q 462 -159 419 -205 q 522 -34 506 -113 q 511 91 537 45 m 906 91 q 819 137 879 137 q 714 91 758 137 q 655 -34 670 45 q 666 -159 639 -113 q 752 -205 692 -205 q 857 -159 813 -205 q 916 -34 901 -113 q 906 91 932 45 m 1112 626 q 1267 556 1217 626 q 1295 370 1317 487 q 1195 187 1273 256 q 1013 118 1118 118 l 1010 118 q 1020 -34 1037 55 q 920 -219 996 -150 q 736 -288 843 -288 q 579 -220 630 -288 q 559 -182 567 -202 q 525 -219 545 -202 q 342 -288 448 -288 q 185 -219 235 -288 q 158 -34 135 -151 q 225 118 175 55 q 223 118 224 118 q 67 186 117 118 q 39 370 16 255 q 139 556 61 487 q 322 626 216 626 l 324 626 q 316 777 298 687 q 415 962 338 893 q 598 1031 491 1031 q 755 963 705 1031 q 775 925 767 945 q 809 963 789 945 q 992 1031 886 1031 q 1149 962 1099 1031 q 1177 777 1199 893 q 1109 626 1159 687 l 1112 626 m 626 421 l 727 421 l 706 315 l 606 315 l 626 421 "},"₨":{"x_min":31.203125,"x_max":1603.3125,"ha":1673,"o":"m 511 563 q 635 594 593 563 q 690 694 676 624 q 674 793 704 763 q 562 823 644 823 l 452 823 l 401 563 l 511 563 m 944 1 l 945 0 l 667 0 l 592 251 q 537 355 570 327 q 440 383 504 383 l 366 383 l 292 0 l 31 0 l 227 1012 l 626 1012 q 906 945 826 1012 q 959 733 986 878 q 878 568 939 632 q 713 473 817 503 q 798 418 765 461 q 859 287 832 375 l 883 207 q 1013 159 944 175 q 1164 141 1085 141 q 1275 161 1235 141 q 1323 219 1315 181 q 1307 268 1329 252 q 1214 293 1285 284 l 1171 298 q 959 373 1013 318 q 927 540 905 428 q 1044 719 950 661 q 1309 777 1138 777 q 1448 767 1376 777 q 1603 735 1520 757 l 1567 551 q 1425 600 1495 583 q 1292 616 1356 616 q 1185 599 1222 616 q 1142 545 1148 581 q 1159 501 1136 516 q 1245 478 1181 485 l 1287 472 q 1522 394 1469 448 q 1554 223 1576 339 q 1429 41 1530 102 q 1150 -19 1327 -19 q 997 -7 1074 -19 q 944 1 971 -3 "},"₪":{"x_min":-44.078125,"x_max":1208.59375,"ha":1186,"o":"m 189 1012 l 546 1012 q 793 907 728 1012 q 809 587 857 802 l 756 353 l 598 353 l 650 587 q 657 766 679 712 q 531 820 635 820 l 360 820 l 170 -18 l -44 -18 l 189 1012 m 975 -19 l 617 -18 q 370 85 435 -18 q 354 405 305 190 l 406 639 l 565 639 l 513 405 q 506 226 484 280 q 632 172 527 172 l 804 172 l 993 1012 l 1208 1012 l 975 -19 "},"Ꙭ":{"x_min":54.96875,"x_max":1897.65625,"ha":1953,"o":"m 692 1030 q 1050 887 940 1030 q 1464 1030 1217 1030 q 1820 891 1709 1030 q 1883 505 1930 751 q 1670 120 1835 259 q 1260 -19 1504 -19 q 902 124 1013 -19 q 487 -19 735 -19 q 132 120 244 -19 q 69 505 21 259 q 282 891 116 751 q 692 1030 448 1030 m 655 841 q 453 753 535 841 q 339 505 370 665 q 356 257 307 345 q 524 169 405 169 q 727 257 644 169 q 841 505 810 345 q 824 753 872 665 q 655 841 775 841 m 1427 841 q 1225 753 1308 841 q 1111 505 1142 665 q 1129 257 1080 345 q 1297 169 1178 169 q 1500 257 1417 169 q 1614 505 1582 345 q 1596 753 1645 665 q 1427 841 1547 841 m 496 634 l 740 634 l 688 372 l 444 372 l 496 634 m 1268 634 l 1512 634 l 1460 372 l 1216 372 l 1268 634 "},"©":{"x_min":192,"x_max":1197,"ha":1389,"o":"m 897 763 l 897 618 q 820 655 858 643 q 744 667 783 667 q 625 623 668 667 q 582 502 582 580 q 624 381 582 424 q 744 339 667 339 q 826 351 787 339 q 897 387 865 363 l 897 242 q 808 219 852 227 q 722 212 764 212 q 493 291 579 212 q 407 502 407 370 q 493 713 407 634 q 722 793 579 793 q 812 785 768 793 q 897 763 855 778 m 694 903 q 541 873 612 903 q 412 784 471 843 q 323 655 353 725 q 294 502 294 585 q 323 350 294 420 q 412 220 353 279 q 541 133 470 162 q 694 104 612 104 q 847 132 778 104 q 976 220 917 161 q 1065 350 1035 279 q 1095 502 1095 420 q 1065 655 1095 585 q 976 784 1035 725 q 846 873 917 844 q 694 903 776 903 m 694 1007 q 886 969 797 1007 q 1049 858 975 932 q 1160 695 1123 784 q 1197 502 1197 606 q 1160 310 1197 399 q 1049 148 1123 222 q 886 37 975 74 q 694 0 797 0 q 502 37 591 0 q 339 148 413 74 q 228 310 265 222 q 192 502 192 399 q 228 695 192 606 q 339 858 265 784 q 502 969 413 932 q 694 1007 591 1007 "},"ò":{"x_min":50,"x_max":904,"ha":954,"o":"m 520 604 q 365 518 426 604 q 304 301 304 433 q 336 191 304 229 q 433 154 369 154 q 588 239 527 154 q 650 458 650 325 q 617 566 650 529 q 520 604 584 604 m 540 778 q 807 691 710 778 q 904 457 904 605 q 873 289 904 370 q 784 141 842 208 q 621 20 715 61 q 410 -20 526 -20 q 146 66 243 -20 q 50 300 50 152 q 81 468 50 386 q 170 617 112 550 q 332 737 238 696 q 540 778 426 778 m 505 1111 l 647 856 l 513 856 l 313 1111 l 505 1111 "},"Ꙫ":{"x_min":57.515625,"x_max":1383.046875,"ha":1441,"o":"m 465 627 l 689 627 l 641 378 l 417 378 l 465 627 m 798 627 l 1022 627 l 973 378 l 750 378 l 798 627 m 785 841 q 487 753 604 841 q 339 505 370 665 q 390 257 307 345 q 655 169 474 169 q 953 257 836 169 q 1102 505 1070 345 q 1050 753 1133 665 q 785 841 967 841 m 822 1030 q 1273 891 1127 1030 q 1371 505 1418 751 q 1123 120 1323 259 q 617 -19 923 -19 q 167 120 313 -19 q 69 505 21 259 q 317 891 116 751 q 822 1030 518 1030 "},"^":{"x_min":140,"x_max":1023,"ha":1164,"o":"m 664 1013 l 1023 635 l 859 635 l 581 839 l 304 635 l 140 635 l 498 1013 l 664 1013 "},"«":{"x_min":85,"x_max":826,"ha":903,"o":"m 826 721 l 792 550 l 556 394 l 732 244 l 703 93 l 417 343 l 442 469 l 826 721 m 493 721 l 459 550 l 225 394 l 400 244 l 371 93 l 85 343 l 110 469 l 493 721 "},"D":{"x_min":29,"x_max":1092,"ha":1153,"o":"m 450 816 l 328 197 l 422 197 q 711 299 604 197 q 818 576 818 402 q 748 755 818 695 q 541 816 678 816 l 450 816 m 226 1013 l 500 1013 q 796 989 697 1013 q 959 911 894 966 q 1058 777 1025 856 q 1092 600 1092 699 q 1035 340 1092 462 q 876 136 978 219 q 668 31 786 62 q 304 0 549 0 l 29 0 l 226 1013 "},"ꙥ":{"x_min":2.71875,"x_max":1307.609375,"ha":1270,"o":"m 2 0 l 36 173 q 204 277 161 198 q 293 635 234 335 l 318 759 l 1307 759 l 1278 609 l 945 609 l 826 0 l 583 0 l 697 585 l 526 585 l 522 560 q 400 176 466 265 q 2 0 271 0 "},"₰":{"x_min":2.03125,"x_max":916.28125,"ha":966,"o":"m 126 332 l 2 421 q 261 604 149 604 q 383 558 341 604 q 465 485 449 485 q 516 503 495 485 q 428 718 428 597 q 435 789 428 752 q 524 965 458 906 q 716 1030 596 1030 q 885 965 832 1030 q 916 862 916 928 q 908 789 916 830 q 783 519 878 635 q 861 331 861 431 q 855 279 861 305 q 713 54 826 127 q 435 -19 600 -19 l 465 134 q 606 177 548 134 q 661 280 648 208 q 664 306 664 294 q 635 383 664 349 q 432 305 541 305 q 306 375 348 305 q 243 430 273 430 q 126 332 209 430 m 655 627 q 725 789 708 700 q 729 833 729 813 q 725 867 729 853 q 689 906 713 906 q 636 867 661 906 q 608 789 617 834 q 603 744 603 765 q 655 627 603 673 "},"ÿ":{"x_min":0,"x_max":954,"ha":905,"o":"m 91 760 l 320 760 l 425 233 l 694 760 l 954 760 l 473 -72 q 324 -256 392 -212 q 147 -300 255 -300 l 0 -300 l 25 -141 l 101 -141 q 194 -120 161 -141 q 252 -50 227 -100 l 275 -9 l 91 760 m 348 1075 l 510 1075 l 476 908 l 317 908 l 348 1075 m 618 1075 l 778 1075 l 744 908 l 585 908 l 618 1075 "},"í":{"x_min":43,"x_max":652,"ha":476,"o":"m 191 760 l 435 760 l 286 0 l 43 0 l 191 760 m 453 1111 l 652 1111 l 355 856 l 219 856 l 453 1111 "},"w":{"x_min":121,"x_max":1288,"ha":1283,"o":"m 121 760 l 344 760 l 371 237 l 600 760 l 793 760 l 821 238 l 1049 760 l 1288 760 l 940 0 l 682 0 l 657 522 l 425 0 l 173 0 l 121 760 "},"$":{"x_min":37.3125,"x_max":875.375,"ha":966,"o":"m 404 -204 l 294 -204 l 334 0 q 174 17 248 3 q 37 58 100 32 l 70 236 q 209 178 135 198 q 364 155 282 157 l 405 365 q 198 440 263 386 q 134 592 134 495 q 235 810 134 727 q 509 899 336 893 l 539 1055 l 648 1055 l 619 901 q 751 885 688 896 q 875 855 815 873 l 842 683 q 734 724 799 708 q 588 745 669 740 l 550 549 q 764 470 694 525 q 834 324 834 415 q 731 90 834 175 q 443 0 629 6 l 404 -204 m 444 566 l 478 744 q 387 711 421 738 q 354 642 354 683 q 376 591 354 609 q 444 566 398 572 m 511 347 l 474 154 q 577 186 541 157 q 614 266 614 215 q 589 320 614 301 q 511 347 564 339 "},"Ꙩ":{"x_min":50,"x_max":1130,"ha":1181,"o":"m 496 634 l 740 634 l 688 372 l 444 372 l 496 634 m 854 597 q 800 779 854 717 q 644 842 746 842 q 416 720 508 842 q 325 414 325 598 q 378 233 325 298 q 527 169 432 169 q 666 201 605 169 q 769 299 726 234 q 831 438 809 361 q 854 597 854 516 m 681 1031 q 1006 918 883 1031 q 1130 625 1130 806 q 1092 391 1130 501 q 982 194 1054 281 q 774 33 894 86 q 496 -20 654 -20 q 172 91 295 -20 q 50 385 50 203 q 87 619 50 509 q 197 817 124 729 q 404 978 283 925 q 681 1031 524 1031 "},"\\":{"x_min":98,"x_max":382.890625,"ha":507,"o":"m 233 -128 l 98 1013 l 248 1013 l 382 -128 l 233 -128 "},"ꙗ":{"x_min":42.734375,"x_max":1257.421875,"ha":1346,"o":"m 1245 433 l 1160 0 l 917 0 l 937 112 q 811 12 878 44 q 667 -19 745 -19 q 496 36 559 -19 q 432 187 432 92 q 455 305 432 252 l 345 305 l 285 0 l 42 0 l 190 759 l 433 759 l 374 455 l 639 455 q 868 486 733 486 l 1011 486 l 1014 505 q 1016 518 1016 514 q 1017 526 1017 522 q 974 593 1017 571 q 849 616 932 616 q 703 600 773 616 q 567 554 632 585 l 603 739 q 759 768 679 758 q 924 777 838 777 q 1175 719 1093 777 q 1257 543 1257 661 q 1254 492 1257 520 q 1245 433 1251 465 m 866 341 q 728 313 775 341 q 682 230 682 285 q 709 165 682 189 q 785 141 737 141 q 910 186 859 141 q 977 314 960 231 l 982 341 l 866 341 "},"Ì":{"x_min":29,"x_max":487.109375,"ha":517,"o":"m 226 1013 l 487 1013 l 289 0 l 29 0 l 226 1013 m 367 1288 l 465 1109 l 344 1109 l 188 1288 l 367 1288 "},"µ":{"x_min":-37,"x_max":931,"ha":1022,"o":"m -37 -290 l 167 760 l 411 760 l 325 317 q 321 289 322 303 q 319 264 319 276 q 348 188 319 215 q 433 162 378 162 q 543 200 503 162 q 600 317 584 238 l 687 760 l 931 760 l 833 251 q 828 224 830 236 q 827 203 827 212 q 836 174 827 183 q 864 164 845 164 q 889 168 876 164 q 916 179 902 172 l 882 10 q 810 -12 843 -5 q 746 -20 777 -20 q 653 5 686 -20 q 606 86 619 31 q 512 6 564 33 q 401 -20 461 -20 q 320 -4 351 -20 q 273 44 288 11 l 208 -290 l -37 -290 "},"Ç":{"x_min":50,"x_max":1005.296875,"ha":1019,"o":"m 841 47 q 661 -3 747 13 q 498 -20 575 -20 q 172 91 294 -20 q 50 388 50 203 q 88 617 50 509 q 202 813 127 725 q 416 974 291 918 q 685 1031 541 1031 q 843 1012 764 1031 q 1005 955 923 993 l 963 746 q 832 818 898 795 q 691 842 766 842 q 428 721 534 842 q 323 418 323 600 q 388 235 323 302 q 567 169 453 169 q 713 193 636 169 q 885 271 790 218 l 841 47 m 585 0 q 622 -65 610 -35 q 634 -123 634 -94 q 582 -233 634 -194 q 438 -272 531 -272 q 372 -267 405 -272 q 305 -254 339 -263 l 324 -148 q 379 -165 351 -159 q 432 -172 406 -172 q 503 -152 477 -172 q 529 -101 529 -133 q 519 -60 529 -83 q 490 0 510 -37 l 585 0 "},"-":{"x_min":35,"x_max":500,"ha":576,"o":"m 74 499 l 500 499 l 461 302 l 35 302 l 74 499 "},"ꙑ":{"x_min":71.890625,"x_max":1390.15625,"ha":1427,"o":"m 1146 760 l 1390 760 l 1241 0 l 998 0 l 1146 760 m 486 151 l 609 151 q 733 237 716 151 q 735 258 735 248 q 641 321 735 321 l 518 321 l 486 151 m 101 759 l 604 759 l 548 471 l 685 471 q 965 293 965 471 q 959 234 965 266 q 594 0 914 0 l 213 0 l 332 609 l 71 609 l 101 759 "},"Q":{"x_min":50,"x_max":1130,"ha":1181,"o":"m 515 -18 q 500 -19 507 -19 q 475 -20 492 -20 q 331 1 399 -20 q 208 63 263 22 q 91 203 133 118 q 50 385 50 288 q 87 620 50 509 q 197 817 125 730 q 404 978 284 925 q 681 1031 523 1031 q 1006 918 883 1031 q 1130 625 1130 806 q 1026 251 1130 412 q 738 17 923 91 l 894 -203 l 645 -203 l 515 -18 m 854 597 q 800 779 854 717 q 644 842 746 842 q 416 720 508 842 q 325 414 325 598 q 378 233 325 298 q 527 169 432 169 q 666 201 605 169 q 769 299 726 234 q 831 438 809 361 q 854 597 854 516 "},"M":{"x_min":29,"x_max":1353,"ha":1382,"o":"m 226 1013 l 547 1013 l 677 474 l 1019 1013 l 1353 1013 l 1156 0 l 908 0 l 1052 747 l 701 194 l 560 194 l 420 747 l 276 0 l 29 0 l 226 1013 "},"C":{"x_min":50,"x_max":1005.296875,"ha":1019,"o":"m 841 47 q 661 -3 747 13 q 498 -20 575 -20 q 172 91 294 -20 q 50 388 50 203 q 88 617 50 509 q 202 813 127 725 q 416 974 291 918 q 685 1031 541 1031 q 843 1012 764 1031 q 1005 955 923 993 l 963 746 q 832 818 898 795 q 691 842 766 842 q 428 721 534 842 q 323 418 323 600 q 388 235 323 302 q 567 169 453 169 q 713 193 636 169 q 885 271 790 218 l 841 47 "},"ꚋ":{"x_min":46.796875,"x_max":944.078125,"ha":1040,"o":"m 75 759 l 869 759 l 840 609 l 564 609 l 533 450 l 709 450 q 906 369 848 450 q 933 135 963 289 l 910 13 q 791 -219 880 -139 q 563 -299 702 -299 l 442 -299 l 473 -140 l 515 -140 q 616 -109 584 -140 q 666 13 648 -78 l 689 137 q 688 260 707 229 q 599 290 668 290 l 503 290 l 446 0 l 204 0 l 322 609 l 46 609 l 75 759 "},"!":{"x_min":96,"x_max":537.84375,"ha":633,"o":"m 293 1013 l 537 1013 l 461 623 l 372 340 l 197 340 l 216 623 l 293 1013 m 143 241 l 387 241 l 340 0 l 96 0 l 143 241 "},"ç":{"x_min":52,"x_max":808,"ha":823,"o":"m 808 736 l 769 538 q 672 587 720 570 q 579 604 625 604 q 385 524 460 604 q 310 320 310 444 q 356 197 310 241 q 489 154 403 154 q 601 170 546 154 q 706 221 656 187 l 668 22 q 547 -9 608 1 q 424 -20 486 -20 q 148 60 245 -20 q 52 288 52 140 q 87 469 52 381 q 189 626 123 556 q 359 740 263 703 q 579 778 455 778 q 694 767 637 778 q 808 736 751 757 m 467 0 q 504 -65 492 -35 q 516 -123 516 -94 q 464 -233 516 -194 q 320 -272 413 -272 q 254 -267 287 -272 q 187 -254 221 -263 l 206 -148 q 261 -165 233 -159 q 314 -172 288 -172 q 385 -152 359 -172 q 411 -101 411 -133 q 401 -60 411 -83 q 372 0 392 -37 l 467 0 "},"È":{"x_min":29,"x_max":930,"ha":949,"o":"m 226 1013 l 930 1013 l 891 816 l 448 816 l 411 627 l 828 627 l 789 430 l 373 430 l 328 197 l 785 197 l 748 0 l 29 0 l 226 1013 m 609 1288 l 707 1109 l 586 1109 l 430 1288 l 609 1288 "},"{":{"x_min":147.21875,"x_max":929,"ha":989,"o":"m 710 -74 l 680 -227 l 533 -227 q 350 -185 411 -227 q 289 -59 289 -143 q 291 -24 289 -44 q 298 23 293 -4 l 323 153 q 329 192 327 174 q 331 226 331 211 q 300 310 331 286 q 190 335 269 335 l 147 335 l 177 486 l 219 486 q 359 525 315 486 q 423 666 404 564 l 450 805 q 554 995 475 936 q 781 1055 633 1055 l 929 1055 l 899 902 l 852 902 q 723 872 758 902 q 669 746 688 843 l 646 634 q 586 480 626 528 q 469 414 546 431 q 548 370 523 400 q 573 287 573 339 q 571 244 573 267 q 562 194 568 221 l 540 82 q 532 34 534 50 q 530 6 530 18 q 557 -56 530 -38 q 663 -74 585 -74 l 710 -74 "},"X":{"x_min":-71,"x_max":1127.421875,"ha":1071,"o":"m 688 512 l 936 0 l 671 0 l 507 339 l 210 0 l -71 0 l 384 519 l 144 1013 l 410 1013 l 566 694 l 844 1013 l 1127 1013 l 688 512 "},"ô":{"x_min":50,"x_max":904,"ha":954,"o":"m 520 604 q 365 518 426 604 q 304 301 304 433 q 336 191 304 229 q 433 154 369 154 q 588 239 527 154 q 650 458 650 325 q 617 566 650 529 q 520 604 584 604 m 540 778 q 807 691 710 778 q 904 457 904 605 q 873 289 904 370 q 784 141 842 208 q 621 20 715 61 q 410 -20 526 -20 q 146 66 243 -20 q 50 300 50 152 q 81 468 50 386 q 170 617 112 550 q 332 737 238 696 q 540 778 426 778 m 500 1111 l 678 1111 l 802 856 l 681 856 l 575 1008 l 411 856 l 278 856 l 500 1111 "},"¼":{"x_min":76.921875,"x_max":1315.515625,"ha":1438,"o":"m 97 559 l 237 559 l 306 912 l 148 877 l 168 986 l 334 1019 l 482 1019 l 392 559 l 532 559 l 511 453 l 76 453 l 97 559 m 403 -20 l 237 -20 l 1074 1031 l 1241 1031 l 403 -20 m 1109 434 l 904 215 l 1066 215 l 1109 434 m 1122 566 l 1291 566 l 1222 215 l 1315 215 l 1295 109 l 1202 109 l 1181 0 l 1025 0 l 1046 109 l 781 109 l 803 223 l 1122 566 "},"#":{"x_min":90,"x_max":1083,"ha":966,"o":"m 694 592 l 515 592 l 467 406 l 646 406 l 694 592 m 617 997 l 552 736 l 731 736 l 797 997 l 947 997 l 881 736 l 1083 736 l 1047 592 l 845 592 l 798 406 l 1000 406 l 963 260 l 763 260 l 698 0 l 548 0 l 613 260 l 434 260 l 369 0 l 218 0 l 283 260 l 90 260 l 125 406 l 316 406 l 364 592 l 172 592 l 208 736 l 401 736 l 466 997 l 617 997 "},"Ê":{"x_min":29,"x_max":930,"ha":949,"o":"m 226 1013 l 930 1013 l 891 816 l 448 816 l 411 627 l 828 627 l 789 430 l 373 430 l 328 197 l 785 197 l 748 0 l 29 0 l 226 1013 m 513 1288 l 749 1288 l 853 1109 l 737 1109 l 626 1218 l 469 1109 l 348 1109 l 513 1288 "},")":{"x_min":-37,"x_max":506,"ha":635,"o":"m 203 1054 l 402 1054 q 480 834 454 942 q 506 617 506 726 q 420 216 506 415 q 161 -183 334 16 l -37 -183 q 199 233 121 27 q 277 647 277 439 q 258 849 277 748 q 203 1054 240 950 "},"Ꙕ":{"x_min":62.390625,"x_max":1601.28125,"ha":1630,"o":"m 1131 604 q 1260 604 1131 604 l 1340 1012 l 1601 1012 l 1404 0 l 1143 0 l 1222 406 l 1093 406 q 889 108 1041 236 q 495 -19 738 -19 q 139 120 250 -19 q 62 367 62 217 q 76 505 62 431 q 289 891 124 751 q 699 1030 455 1030 q 1044 902 943 1030 q 1133 645 1133 790 q 1131 604 1133 625 m 662 841 q 459 753 542 841 q 345 505 377 665 q 333 392 333 442 q 363 257 333 311 q 532 169 412 169 q 734 257 651 169 q 848 505 817 345 q 860 619 860 567 q 830 753 860 699 q 662 841 781 841 "},"Å":{"x_min":-90,"x_max":960,"ha":1075,"o":"m 539 1096 q 565 1033 539 1059 q 628 1007 591 1007 q 690 1033 664 1007 q 717 1096 717 1059 q 690 1158 717 1132 q 628 1185 664 1185 q 565 1158 591 1185 q 539 1096 539 1132 m 783 987 l 960 0 l 711 0 l 682 184 l 278 184 l 177 0 l -90 0 l 469 988 q 443 1039 451 1013 q 435 1095 435 1065 q 491 1232 435 1175 q 628 1289 548 1289 q 764 1232 707 1289 q 821 1095 821 1175 q 812 1037 821 1063 q 783 987 803 1011 m 376 368 l 648 368 l 587 758 l 376 368 "},"ø":{"x_min":-23.734375,"x_max":972.5,"ha":954,"o":"m 613 570 q 574 595 598 587 q 520 604 551 604 q 368 523 425 604 q 304 297 310 442 l 613 570 m 102 117 q 63 204 76 158 q 50 302 50 250 q 80 469 50 387 q 170 617 111 550 q 332 737 238 697 q 543 778 426 778 q 672 762 613 778 q 776 715 730 746 l 906 829 l 972 754 l 848 644 q 890 557 876 604 q 904 456 904 510 q 873 289 904 370 q 784 141 842 208 q 620 21 716 62 q 410 -20 525 -20 q 277 -3 336 -20 q 171 47 218 13 l 41 -69 l -23 6 l 102 117 m 337 191 q 377 163 354 172 q 433 154 401 154 q 587 238 529 154 q 650 469 645 322 l 337 191 "},"â":{"x_min":24,"x_max":849,"ha":937,"o":"m 457 342 q 320 313 366 342 q 274 230 274 285 q 301 164 274 188 q 377 141 328 141 q 501 186 451 141 q 568 314 552 231 l 574 342 l 457 342 m 836 433 l 752 0 l 509 0 l 529 111 q 403 12 469 44 q 258 -20 336 -20 q 87 35 150 -20 q 24 186 24 91 q 136 409 24 332 q 460 486 248 486 l 603 486 l 606 505 q 608 518 608 514 q 608 526 608 523 q 566 594 608 571 q 440 617 524 617 q 294 601 365 617 q 158 555 223 586 l 194 740 q 350 768 270 758 q 515 778 430 778 q 766 719 684 778 q 849 543 849 661 q 845 492 849 520 q 836 433 842 465 m 491 1111 l 669 1111 l 793 856 l 672 856 l 566 1008 l 402 856 l 269 856 l 491 1111 "},"}":{"x_min":61,"x_max":841.390625,"ha":989,"o":"m 90 -74 l 137 -74 q 266 -43 232 -74 q 320 82 301 -13 l 342 194 q 403 348 362 299 q 521 414 443 397 q 441 458 467 427 q 415 541 415 488 q 418 580 415 557 q 427 634 421 603 l 449 746 q 457 792 455 775 q 459 821 459 809 q 431 884 459 867 q 325 902 404 902 l 280 902 l 309 1055 l 457 1055 q 640 1013 579 1055 q 701 888 701 972 q 698 848 701 869 q 691 805 696 828 l 665 666 q 658 627 660 645 q 656 594 656 609 q 688 510 656 534 q 798 486 719 486 l 841 486 l 810 335 l 769 335 q 629 295 673 335 q 565 153 584 255 l 540 23 q 435 -167 514 -107 q 207 -227 356 -227 l 61 -227 l 90 -74 "},"Ä":{"x_min":-90,"x_max":960,"ha":1075,"o":"m 682 184 l 278 184 l 177 0 l -90 0 l 482 1013 l 780 1013 l 960 0 l 711 0 l 682 184 m 376 368 l 648 368 l 587 758 l 376 368 m 453 1288 l 614 1288 l 582 1121 l 422 1121 l 453 1288 m 721 1288 l 883 1288 l 849 1121 l 690 1121 l 721 1288 "},"Ꙥ":{"x_min":-34.59375,"x_max":1582.96875,"ha":1523,"o":"m -34 0 l 3 197 q 236 328 179 216 q 366 821 291 440 l 403 1012 l 1582 1012 l 1544 815 l 1086 815 l 927 0 l 666 0 l 824 815 l 626 815 l 614 753 q 442 210 540 379 q -34 0 343 37 "},"¸":{"x_min":30,"x_max":359,"ha":695,"o":"m 310 0 q 347 -65 335 -35 q 359 -123 359 -94 q 307 -233 359 -194 q 163 -272 256 -272 q 97 -267 130 -272 q 30 -254 64 -263 l 49 -148 q 104 -165 76 -159 q 157 -172 131 -172 q 228 -152 202 -172 q 254 -101 254 -133 q 244 -60 254 -83 q 215 0 235 -37 l 310 0 "},"a":{"x_min":24,"x_max":849,"ha":937,"o":"m 457 342 q 320 313 366 342 q 274 230 274 285 q 301 164 274 188 q 377 141 328 141 q 501 186 451 141 q 568 314 552 231 l 574 342 l 457 342 m 836 433 l 752 0 l 509 0 l 529 111 q 403 12 469 44 q 258 -20 336 -20 q 87 35 150 -20 q 24 186 24 91 q 136 409 24 332 q 460 486 248 486 l 603 486 l 606 505 q 608 518 608 514 q 608 526 608 523 q 566 594 608 571 q 440 617 524 617 q 294 601 365 617 q 158 555 223 586 l 194 740 q 350 768 270 758 q 515 778 430 778 q 766 719 684 778 q 849 543 849 661 q 845 492 849 520 q 836 433 842 465 "},"=":{"x_min":147,"x_max":1016,"ha":1164,"o":"m 147 669 l 1016 669 l 1016 510 l 147 510 l 147 669 m 147 361 l 1016 361 l 1016 200 l 147 200 l 147 361 "},"N":{"x_min":29,"x_max":1133,"ha":1162,"o":"m 226 1013 l 517 1013 l 749 311 l 886 1013 l 1133 1013 l 936 0 l 644 0 l 411 701 l 276 0 l 29 0 l 226 1013 "},"ꙕ":{"x_min":50.859375,"x_max":1307.609375,"ha":1350,"o":"m 1307 759 l 1159 0 l 916 0 l 976 305 l 876 305 q 718 77 837 174 q 400 -19 597 -19 q 115 86 204 -19 q 50 277 50 161 q 61 379 50 324 q 228 672 98 566 q 555 777 359 777 q 835 681 752 777 q 908 486 908 596 q 906 455 908 470 l 1005 455 l 1064 759 l 1307 759 m 522 604 q 389 546 442 604 q 314 379 335 488 q 305 298 305 334 q 324 211 305 246 q 434 153 354 153 q 568 211 514 153 q 643 379 622 269 q 652 459 652 423 q 633 546 652 512 q 522 604 602 604 "},"ú":{"x_min":83,"x_max":946,"ha":989,"o":"m 93 295 l 183 760 l 426 760 l 349 364 q 337 298 341 325 q 333 255 333 270 q 357 188 333 212 q 425 165 381 165 q 554 223 500 165 q 629 385 609 281 l 702 760 l 946 760 l 799 0 l 554 0 l 576 110 q 445 12 514 45 q 300 -20 376 -20 q 140 34 197 -20 q 83 190 83 89 q 85 240 83 214 q 93 295 88 266 m 696 1111 l 895 1111 l 598 856 l 462 856 l 696 1111 "},"2":{"x_min":11,"x_max":889,"ha":966,"o":"m 343 192 l 783 192 l 746 0 l 11 0 l 48 193 l 479 518 q 587 628 550 572 q 624 736 624 683 q 586 822 624 791 q 479 853 548 853 q 335 827 415 853 q 156 749 256 802 l 200 964 q 381 1014 292 997 q 556 1031 470 1031 q 800 964 711 1031 q 889 782 889 897 q 834 601 889 683 q 596 381 780 520 l 343 192 "},"ü":{"x_min":83,"x_max":946,"ha":989,"o":"m 93 295 l 183 760 l 426 760 l 349 364 q 337 298 341 325 q 333 255 333 270 q 357 188 333 212 q 425 165 381 165 q 554 223 500 165 q 629 385 609 281 l 702 760 l 946 760 l 799 0 l 554 0 l 576 110 q 445 12 514 45 q 300 -20 376 -20 q 140 34 197 -20 q 83 190 83 89 q 85 240 83 214 q 93 295 88 266 m 389 1075 l 551 1075 l 517 908 l 358 908 l 389 1075 m 659 1075 l 819 1075 l 785 908 l 626 908 l 659 1075 "},"¯":{"x_min":215,"x_max":668,"ha":694,"o":"m 240 1055 l 668 1055 l 642 927 l 215 927 l 240 1055 "},"Z":{"x_min":-36,"x_max":1028,"ha":1007,"o":"m 176 1013 l 1028 1013 l 995 851 l 339 197 l 884 197 l 845 0 l -36 0 l -5 161 l 653 816 l 137 816 l 176 1013 "},"u":{"x_min":83,"x_max":946,"ha":989,"o":"m 93 295 l 183 760 l 426 760 l 349 364 q 337 298 341 325 q 333 255 333 270 q 357 188 333 212 q 425 165 381 165 q 554 223 500 165 q 629 385 609 281 l 702 760 l 946 760 l 799 0 l 554 0 l 576 110 q 445 12 514 45 q 300 -20 376 -20 q 140 34 197 -20 q 83 190 83 89 q 85 240 83 214 q 93 295 88 266 "},"Ó":{"x_min":50,"x_max":1130,"ha":1181,"o":"m 854 597 q 800 779 854 717 q 644 842 746 842 q 416 720 508 842 q 325 414 325 598 q 378 233 325 298 q 527 169 432 169 q 666 201 605 169 q 769 299 726 234 q 831 438 809 361 q 854 597 854 516 m 681 1031 q 1006 918 883 1031 q 1130 625 1130 806 q 1092 391 1130 501 q 982 194 1054 281 q 774 33 894 86 q 496 -20 654 -20 q 172 91 295 -20 q 50 385 50 203 q 87 619 50 509 q 197 817 124 729 q 404 978 283 925 q 681 1031 524 1031 m 783 1288 l 974 1288 l 757 1109 l 617 1109 l 783 1288 "},"k":{"x_min":43,"x_max":995,"ha":924,"o":"m 248 1055 l 492 1055 l 380 483 l 708 760 l 995 760 l 553 408 l 874 0 l 596 0 l 350 327 l 286 0 l 43 0 l 248 1055 "},"₯":{"x_min":51.546875,"x_max":1694.203125,"ha":1933,"o":"m 1108 -309 l 968 -280 l 1173 207 q 1273 385 1220 318 q 1383 486 1322 448 q 1514 524 1441 524 q 1604 505 1564 524 q 1674 443 1652 482 q 1694 353 1694 406 q 1686 278 1694 318 q 1625 129 1670 195 q 1509 15 1568 49 q 1375 -19 1448 -19 q 1302 -1 1333 -19 q 1261 56 1279 13 l 1108 -309 m 1389 320 q 1336 200 1350 269 q 1334 169 1334 183 q 1340 134 1334 149 q 1382 101 1353 101 q 1482 147 1439 101 q 1546 281 1530 199 q 1551 326 1551 306 q 1544 363 1551 348 q 1490 392 1531 392 q 1389 320 1443 392 m 354 283 q 375 329 364 303 l 599 879 q 576 870 588 875 q 530 838 552 857 q 484 777 511 819 l 349 822 q 427 921 374 870 q 519 987 474 965 q 745 1030 608 1030 q 985 987 884 1030 q 1129 873 1080 946 q 1182 748 1174 807 q 1190 655 1190 690 q 1180 553 1190 605 q 1127 381 1165 476 q 1032 208 1093 293 q 958 122 998 161 q 870 51 918 83 q 762 0 816 16 q 642 -19 693 -19 q 571 -13 600 -19 q 507 8 539 -6 q 457 36 474 25 l 421 61 q 398 37 410 48 q 227 -19 332 -19 q 88 24 133 -19 q 51 107 51 59 q 54 134 51 120 q 126 249 67 198 q 268 294 180 294 q 354 283 318 294 m 779 887 l 551 327 q 497 206 520 252 l 520 187 q 592 138 568 150 q 657 122 624 122 q 776 164 722 122 q 882 279 833 208 q 952 415 916 330 q 992 548 980 484 q 1001 630 1001 588 q 996 692 1001 651 q 966 777 992 734 q 779 887 904 878 m 283 147 q 242 168 266 168 q 211 158 223 168 q 199 139 201 149 q 198 132 198 135 q 208 112 198 120 q 238 104 218 104 q 283 147 262 104 "},"Ù":{"x_min":94,"x_max":1098.453125,"ha":1128,"o":"m 226 1013 l 487 1013 l 369 406 q 359 348 362 373 q 356 304 356 323 q 392 204 356 237 q 498 172 427 172 q 644 225 593 172 q 719 405 694 278 l 837 1013 l 1098 1013 l 980 405 q 813 80 936 181 q 460 -20 690 -20 q 187 57 281 -20 q 94 280 94 134 q 97 335 94 305 q 108 405 100 365 l 226 1013 m 665 1288 l 763 1109 l 642 1109 l 486 1288 l 665 1288 "},"€":{"x_min":-57,"x_max":954,"ha":966,"o":"m 806 47 q 644 -3 722 13 q 497 -20 567 -20 q 227 69 331 -20 q 98 324 123 159 l -57 324 l 2 456 l 96 456 q 101 501 98 477 q 113 557 105 525 l -6 557 l 52 689 l 157 689 q 361 938 224 845 q 666 1031 499 1031 q 809 1012 737 1031 q 954 955 880 993 l 916 747 q 802 827 860 801 q 675 853 744 853 q 534 810 599 853 q 423 689 469 768 l 760 689 l 701 557 l 374 557 q 366 509 369 533 q 360 456 362 485 l 658 456 l 598 324 l 369 324 q 437 200 385 243 q 573 158 490 158 q 705 187 635 158 q 846 272 775 217 l 806 47 "},"₦":{"x_min":18.984375,"x_max":1143.484375,"ha":1162,"o":"m 692 428 l 722 583 l 656 583 l 678 428 l 692 428 m 18 297 l 44 428 l 192 428 l 222 583 l 74 583 l 100 715 l 248 715 l 305 1012 l 597 1012 l 638 715 l 748 715 l 805 1012 l 1053 1012 l 995 715 l 1143 715 l 1117 583 l 969 583 l 940 428 l 1087 428 l 1062 297 l 914 297 l 856 0 l 564 0 l 524 297 l 414 297 l 356 0 l 109 0 l 166 297 l 18 297 m 470 583 l 440 428 l 505 428 l 484 583 l 470 583 "},"¢":{"x_min":93,"x_max":847.140625,"ha":966,"o":"m 502 581 q 391 479 433 550 q 350 321 350 408 q 369 233 350 270 q 423 179 388 196 l 502 581 m 847 737 l 808 539 q 711 588 757 572 q 622 605 666 605 l 616 605 l 529 154 q 644 171 590 155 q 746 221 697 188 l 708 22 q 606 -4 659 5 q 495 -18 553 -14 l 458 -212 l 348 -212 l 385 -15 q 171 78 249 0 q 93 281 93 157 q 216 614 93 478 q 540 774 339 751 l 577 972 l 687 972 l 650 777 q 746 765 696 775 q 847 737 795 755 "},"ß":{"x_min":43,"x_max":925,"ha":999,"o":"m 189 754 q 322 980 217 906 q 612 1055 427 1055 q 845 995 765 1055 q 925 820 925 935 q 923 790 925 806 q 917 755 921 773 l 907 706 q 745 671 805 702 q 685 590 685 639 q 754 504 685 553 q 764 497 760 500 l 805 468 q 888 381 862 428 q 915 272 915 334 q 820 60 915 141 q 572 -20 726 -20 q 468 -11 519 -20 q 366 13 416 -3 l 400 178 q 475 150 438 159 q 548 141 513 141 q 638 166 604 141 q 672 233 672 192 q 656 282 672 260 q 588 342 640 304 l 547 371 q 481 437 501 403 q 461 514 461 471 q 523 675 461 608 q 702 775 585 742 q 703 785 703 779 q 704 801 704 790 q 676 870 704 846 q 594 894 648 894 q 485 857 525 894 q 431 745 446 821 l 286 0 l 43 0 l 189 754 "},"é":{"x_min":50,"x_max":902,"ha":942,"o":"m 873 351 l 865 313 l 297 313 q 296 301 297 308 q 296 289 296 293 q 340 177 296 214 q 473 141 384 141 q 635 164 550 141 q 814 233 720 187 l 776 44 q 599 -4 687 11 q 421 -20 512 -20 q 146 62 243 -20 q 50 294 50 144 q 80 462 50 381 q 170 612 111 544 q 337 735 240 693 q 553 778 435 778 q 798 695 707 778 q 889 475 889 613 q 885 417 889 447 q 873 351 881 387 m 643 463 q 646 480 645 471 q 648 498 648 490 q 615 585 648 553 q 527 617 583 617 q 406 577 456 617 q 330 463 356 538 l 643 463 m 703 1111 l 902 1111 l 605 856 l 469 856 l 703 1111 "},"s":{"x_min":13.0625,"x_max":777.765625,"ha":827,"o":"m 777 737 l 741 548 q 600 599 670 581 q 466 617 529 617 q 355 598 394 617 q 317 545 317 579 q 338 512 317 524 q 423 486 360 500 l 467 478 q 673 398 614 447 q 733 261 733 348 q 629 54 733 128 q 338 -20 525 -20 q 179 -8 260 -20 q 13 28 97 4 l 49 219 q 190 160 115 180 q 344 141 265 141 q 459 159 420 141 q 498 213 498 177 q 476 251 498 237 q 387 278 454 264 l 343 287 q 157 367 213 314 q 102 513 102 420 q 197 709 102 640 q 472 778 293 778 q 625 767 550 778 q 777 737 701 757 "},"B":{"x_min":29,"x_max":971,"ha":1059,"o":"m 555 621 q 664 656 625 621 q 704 753 704 691 q 676 814 704 793 q 597 835 649 835 l 451 835 l 409 621 l 555 621 m 477 178 q 615 220 567 178 q 664 343 664 263 q 630 418 664 394 q 528 443 597 443 l 374 443 l 323 178 l 477 178 m 787 542 q 889 472 853 523 q 926 347 926 422 q 804 91 926 183 q 462 0 682 0 l 29 0 l 226 1013 l 617 1013 q 884 960 798 1013 q 971 796 971 907 q 920 633 971 703 q 787 542 869 563 "},"?":{"x_min":144,"x_max":770,"ha":806,"o":"m 191 241 l 436 241 l 388 0 l 144 0 l 191 241 m 455 341 l 210 341 l 216 374 q 256 471 226 428 q 375 583 286 513 l 425 622 q 503 700 479 664 q 528 772 528 736 q 500 832 528 811 q 421 853 472 853 q 298 830 366 853 q 152 763 230 807 l 194 976 q 351 1017 280 1004 q 488 1031 423 1031 q 695 972 620 1031 q 770 813 770 914 q 734 669 770 733 q 611 536 698 605 l 559 495 q 486 427 505 453 q 461 371 466 400 l 455 341 "},"H":{"x_min":29,"x_max":1133,"ha":1162,"o":"m 226 1013 l 487 1013 l 411 627 l 797 627 l 872 1013 l 1133 1013 l 936 0 l 674 0 l 758 430 l 373 430 l 289 0 l 29 0 l 226 1013 "},"î":{"x_min":43,"x_max":575,"ha":476,"o":"m 191 760 l 435 760 l 286 0 l 43 0 l 191 760 m 273 1111 l 451 1111 l 575 856 l 454 856 l 348 1008 l 184 856 l 51 856 l 273 1111 "},"c":{"x_min":52,"x_max":808,"ha":823,"o":"m 808 736 l 769 538 q 672 587 720 570 q 579 604 625 604 q 385 524 460 604 q 310 320 310 444 q 356 197 310 241 q 489 154 403 154 q 601 170 546 154 q 706 221 656 187 l 668 22 q 547 -9 608 1 q 424 -20 486 -20 q 148 60 245 -20 q 52 288 52 140 q 87 469 52 381 q 189 626 123 556 q 359 740 263 703 q 579 778 455 778 q 694 767 637 778 q 808 736 751 757 "},"¶":{"x_min":103,"x_max":838.53125,"ha":884,"o":"m 485 1013 l 838 1013 l 615 -134 l 487 -134 l 690 913 l 561 913 l 357 -134 l 229 -134 l 340 441 q 164 516 226 454 q 103 679 103 579 q 209 919 103 825 q 485 1013 315 1013 "},"¥":{"x_min":8.15625,"x_max":1048.640625,"ha":966,"o":"m 877 282 l 569 282 l 514 0 l 256 0 l 311 282 l 8 282 l 34 414 l 336 414 l 346 465 l 326 517 l 54 517 l 79 647 l 276 647 l 131 1013 l 380 1013 l 512 673 l 773 1013 l 1048 1013 l 750 647 l 948 647 l 923 517 l 647 517 l 607 465 l 594 414 l 902 414 l 877 282 "},"(":{"x_min":107,"x_max":649,"ha":635,"o":"m 409 -183 l 212 -183 q 133 37 159 -70 q 107 253 107 145 q 193 652 107 453 q 452 1054 279 852 l 649 1054 q 413 637 491 843 q 336 225 336 432 q 354 22 336 123 q 409 -183 372 -79 "},"U":{"x_min":94,"x_max":1098.453125,"ha":1128,"o":"m 226 1013 l 487 1013 l 369 406 q 359 348 362 373 q 356 304 356 323 q 392 204 356 237 q 498 172 427 172 q 644 225 593 172 q 719 405 694 278 l 837 1013 l 1098 1013 l 980 405 q 813 80 936 181 q 460 -20 690 -20 q 187 57 281 -20 q 94 280 94 134 q 97 335 94 305 q 108 405 100 365 l 226 1013 "},"₠":{"x_min":64.703125,"x_max":1276.421875,"ha":1291,"o":"m 747 759 l 1276 759 l 1247 611 l 914 611 l 887 470 l 1200 470 l 1171 322 l 858 322 l 824 147 l 1168 147 l 1140 0 l 600 0 l 655 282 q 534 239 595 253 q 409 225 472 225 q 129 331 219 225 q 74 619 39 437 q 241 907 109 800 q 562 1013 373 1013 q 681 999 626 1013 q 786 956 737 984 l 755 799 q 658 854 708 836 q 550 871 609 871 q 373 804 446 871 q 276 619 299 737 q 301 434 254 501 q 453 367 347 367 q 567 384 511 367 q 685 438 623 402 l 747 759 "},"Ñ":{"x_min":29,"x_max":1133,"ha":1162,"o":"m 226 1013 l 517 1013 l 749 311 l 886 1013 l 1133 1013 l 936 0 l 644 0 l 411 701 l 276 0 l 29 0 l 226 1013 m 671 1143 l 638 1168 q 610 1185 621 1181 q 587 1190 599 1190 q 545 1168 562 1190 q 519 1109 527 1146 l 427 1109 q 489 1242 444 1195 q 598 1289 533 1289 q 645 1280 623 1289 q 691 1254 667 1272 l 726 1227 q 750 1213 737 1218 q 773 1209 762 1209 q 817 1229 799 1209 q 842 1289 835 1250 l 936 1289 q 873 1155 918 1202 q 766 1109 829 1109 q 718 1116 740 1109 q 671 1143 697 1123 "},"F":{"x_min":29,"x_max":930,"ha":949,"o":"m 226 1013 l 930 1013 l 891 816 l 448 816 l 411 627 l 828 627 l 789 430 l 373 430 l 289 0 l 29 0 l 226 1013 "},"­":{"x_min":35,"x_max":500,"ha":576,"o":"m 74 499 l 500 499 l 461 302 l 35 302 l 74 499 "},":":{"x_min":57,"x_max":448.84375,"ha":555,"o":"m 204 760 l 448 760 l 398 498 l 154 498 l 204 760 m 109 262 l 352 262 l 300 0 l 57 0 l 109 262 "},"Ꙍ":{"x_min":52.21875,"x_max":1871.890625,"ha":1952,"o":"m 1419 -19 q 1268 23 1353 -19 q 1112 103 1268 23 q 917 147 1015 147 q 705 103 820 147 q 520 23 705 103 q 352 -19 417 -19 q 92 94 164 -19 q 52 257 52 160 q 63 365 52 307 q 178 663 91 510 q 364 908 262 813 l 581 908 q 431 681 518 851 q 312 364 339 501 q 303 286 303 320 q 390 178 303 178 q 556 210 472 178 q 711 271 634 240 q 948 303 816 303 q 1171 271 1080 303 q 1304 210 1238 240 q 1458 178 1376 178 q 1608 367 1571 178 q 1622 535 1622 444 q 1614 680 1622 604 q 1550 908 1593 848 l 1766 908 q 1858 663 1832 813 q 1871 515 1871 588 q 1856 364 1871 438 q 1723 94 1823 194 q 1419 -19 1607 -19 "},"Û":{"x_min":94,"x_max":1098.453125,"ha":1128,"o":"m 226 1013 l 487 1013 l 369 406 q 359 348 362 373 q 356 304 356 323 q 392 204 356 237 q 498 172 427 172 q 644 225 593 172 q 719 405 694 278 l 837 1013 l 1098 1013 l 980 405 q 813 80 936 181 q 460 -20 690 -20 q 187 57 281 -20 q 94 280 94 134 q 97 335 94 305 q 108 405 100 365 l 226 1013 m 569 1288 l 805 1288 l 909 1109 l 793 1109 l 682 1218 l 525 1109 l 404 1109 l 569 1288 "},"*":{"x_min":28,"x_max":698,"ha":726,"o":"m 698 825 l 474 708 l 698 590 l 646 495 l 421 619 l 421 386 l 306 386 l 306 619 l 79 495 l 28 590 l 254 708 l 28 825 l 79 921 l 306 797 l 306 1031 l 421 1031 l 421 797 l 646 921 l 698 825 "},"₫":{"x_min":50,"x_max":1134.859375,"ha":992,"o":"m 426 156 q 578 242 519 156 q 637 468 637 328 q 604 566 637 531 q 512 602 571 602 q 360 516 420 602 q 301 298 301 431 q 333 192 301 228 q 426 156 365 156 m 682 648 l 720 849 l 452 849 l 477 977 l 745 977 l 760 1055 l 1006 1055 l 990 977 l 1134 977 l 1109 849 l 965 849 l 800 0 l 555 0 l 577 109 q 460 11 522 43 q 327 -20 399 -20 q 124 61 199 -20 q 50 283 50 142 q 76 453 50 370 q 151 604 102 536 q 290 733 212 689 q 456 778 368 778 q 589 746 534 778 q 682 648 644 715 m 215 -130 l 643 -130 l 617 -258 l 190 -258 l 215 -130 "},"°":{"x_min":121,"x_max":573,"ha":695,"o":"m 347 930 q 264 896 298 930 q 231 813 231 862 q 264 731 231 764 q 347 698 298 698 q 430 731 396 698 q 464 813 464 765 q 429 896 464 862 q 347 930 395 930 m 347 1040 q 433 1022 392 1040 q 507 973 475 1005 q 556 900 539 940 q 573 813 573 859 q 556 726 573 767 q 509 655 539 685 q 434 605 476 622 q 346 588 392 588 q 185 652 250 588 q 121 813 121 717 q 186 974 121 909 q 347 1040 251 1040 "},"V":{"x_min":106,"x_max":1167,"ha":1075,"o":"m 106 1013 l 354 1013 l 478 255 l 897 1013 l 1167 1013 l 595 0 l 283 0 l 106 1013 "},"å":{"x_min":24,"x_max":849,"ha":937,"o":"m 457 342 q 320 313 366 342 q 274 230 274 285 q 301 164 274 188 q 377 141 328 141 q 501 186 451 141 q 568 314 552 231 l 574 342 l 457 342 m 836 433 l 752 0 l 509 0 l 529 111 q 403 12 469 44 q 258 -20 336 -20 q 87 35 150 -20 q 24 186 24 91 q 136 409 24 332 q 460 486 248 486 l 603 486 l 606 505 q 608 518 608 514 q 608 526 608 523 q 566 594 608 571 q 440 617 524 617 q 294 601 365 617 q 158 555 223 586 l 194 740 q 350 768 270 758 q 515 778 430 778 q 766 719 684 778 q 849 543 849 661 q 845 492 849 520 q 836 433 842 465 m 764 1033 q 708 895 764 951 q 571 840 652 840 q 433 895 489 840 q 378 1033 378 951 q 433 1170 378 1114 q 571 1226 489 1226 q 708 1170 652 1226 q 764 1033 764 1114 m 672 1033 q 643 1105 672 1077 q 571 1134 615 1134 q 498 1105 526 1134 q 470 1033 470 1077 q 498 960 470 989 q 571 932 527 932 q 643 960 615 932 q 672 1033 672 988 "}," ":{"x_min":0,"x_max":0,"ha":484},"0":{"x_min":50,"x_max":917,"ha":966,"o":"m 414 158 q 507 189 467 158 q 575 280 548 220 q 609 378 594 323 q 639 507 625 432 q 656 618 650 567 q 663 705 663 669 q 635 817 663 781 q 551 853 608 853 q 458 822 498 853 q 391 730 418 792 q 354 630 371 686 q 325 507 338 574 q 308 394 314 446 q 302 305 302 341 q 329 194 302 230 q 414 158 357 158 m 917 666 q 879 404 917 531 q 775 180 842 276 q 609 30 706 81 q 393 -20 512 -20 q 138 74 227 -20 q 50 345 50 168 q 86 606 50 478 q 190 829 123 734 q 356 980 260 929 q 573 1031 452 1031 q 827 936 738 1031 q 917 666 917 841 "},"¾":{"x_min":66,"x_max":1315.515625,"ha":1438,"o":"m 461 759 q 539 719 512 750 q 566 636 566 687 q 486 493 566 543 q 260 443 407 443 q 157 451 206 443 q 66 474 108 459 l 88 592 q 168 554 127 567 q 249 542 208 542 q 365 567 323 542 q 407 638 407 593 q 373 692 407 675 q 269 710 339 710 l 217 710 l 235 803 l 294 803 q 403 822 365 803 q 442 879 442 842 q 416 918 442 905 q 340 931 390 931 q 260 922 303 931 q 165 895 217 913 l 186 1007 q 285 1024 235 1018 q 385 1031 336 1031 q 546 997 490 1031 q 603 900 603 963 q 564 807 603 845 q 461 759 526 769 m 403 -20 l 237 -20 l 1074 1031 l 1241 1031 l 403 -20 m 1109 434 l 904 215 l 1066 215 l 1109 434 m 1122 566 l 1291 566 l 1222 215 l 1315 215 l 1295 109 l 1202 109 l 1181 0 l 1025 0 l 1046 109 l 781 109 l 803 223 l 1122 566 "},"@":{"x_min":62,"x_max":1287,"ha":1389,"o":"m 701 544 q 577 472 629 544 q 526 302 526 401 q 553 215 526 245 q 633 186 580 186 q 755 254 705 186 q 805 421 805 322 q 778 512 805 480 q 701 544 751 544 m 777 167 q 696 88 747 116 q 584 60 645 60 q 431 124 487 60 q 376 301 376 188 q 472 560 376 451 q 702 670 568 670 q 801 641 758 670 q 857 566 843 612 l 873 656 l 1011 656 l 920 186 q 1092 296 1023 200 q 1161 522 1161 392 q 1049 758 1161 666 q 759 850 937 850 q 511 798 626 850 q 317 650 397 746 q 222 486 255 575 q 190 300 190 396 q 302 2 190 118 q 591 -113 414 -113 q 749 -83 671 -113 q 898 1 827 -54 l 972 -104 q 776 -204 873 -171 q 583 -238 679 -238 q 406 -210 491 -238 q 255 -130 321 -182 q 111 50 160 -56 q 62 294 62 158 q 102 525 62 414 q 220 729 143 636 q 459 912 319 848 q 759 977 598 977 q 967 945 871 977 q 1138 851 1063 913 q 1248 710 1209 791 q 1287 540 1287 629 q 1148 193 1287 327 q 784 60 1009 60 q 774 59 781 60 q 766 58 768 58 q 760 58 762 58 q 756 60 758 59 l 777 167 "},"ö":{"x_min":50,"x_max":904,"ha":954,"o":"m 520 604 q 365 518 426 604 q 304 301 304 433 q 336 191 304 229 q 433 154 369 154 q 588 239 527 154 q 650 458 650 325 q 617 566 650 529 q 520 604 584 604 m 540 778 q 807 691 710 778 q 904 457 904 605 q 873 289 904 370 q 784 141 842 208 q 621 20 715 61 q 410 -20 526 -20 q 146 66 243 -20 q 50 300 50 152 q 81 468 50 386 q 170 617 112 550 q 332 737 238 696 q 540 778 426 778 m 373 1075 l 535 1075 l 501 908 l 342 908 l 373 1075 m 643 1075 l 803 1075 l 769 908 l 610 908 l 643 1075 "},"i":{"x_min":43,"x_max":492.15625,"ha":476,"o":"m 191 760 l 435 760 l 286 0 l 43 0 l 191 760 m 248 1055 l 492 1055 l 453 858 l 209 858 l 248 1055 "},"₳":{"x_min":-92.234375,"x_max":950.875,"ha":966,"o":"m 27 475 l 53 607 l 234 607 l 452 1012 l 709 1012 l 769 607 l 950 607 l 925 475 l 789 475 l 804 374 l 905 374 l 879 242 l 824 242 l 860 0 l 625 0 l 589 242 l 273 242 l 143 0 l -92 0 l 37 242 l -17 242 l 8 374 l 109 374 l 163 475 l 27 475 m 398 475 l 344 374 l 569 374 l 554 475 l 398 475 m 470 607 l 534 607 l 520 701 l 470 607 "},"Õ":{"x_min":50,"x_max":1130,"ha":1181,"o":"m 854 597 q 800 779 854 717 q 644 842 746 842 q 416 720 508 842 q 325 414 325 598 q 378 233 325 298 q 527 169 432 169 q 666 201 605 169 q 769 299 726 234 q 831 438 809 361 q 854 597 854 516 m 681 1031 q 1006 918 883 1031 q 1130 625 1130 806 q 1092 391 1130 501 q 982 194 1054 281 q 774 33 894 86 q 496 -20 654 -20 q 172 91 295 -20 q 50 385 50 203 q 87 619 50 509 q 197 817 124 729 q 404 978 283 925 q 681 1031 524 1031 m 720 1143 l 687 1168 q 659 1185 670 1181 q 636 1190 648 1190 q 594 1168 611 1190 q 568 1109 576 1146 l 476 1109 q 538 1242 493 1195 q 647 1289 582 1289 q 694 1280 672 1289 q 740 1254 716 1272 l 775 1227 q 799 1213 786 1218 q 822 1209 811 1209 q 866 1229 848 1209 q 891 1289 884 1250 l 985 1289 q 922 1155 967 1202 q 815 1109 878 1109 q 767 1116 789 1109 q 720 1143 746 1123 "},"þ":{"x_min":-14,"x_max":940,"ha":994,"o":"m 308 109 l 230 -289 l -14 -289 l 247 1055 l 491 1055 l 411 648 q 528 746 467 715 q 662 778 589 778 q 865 696 790 778 q 940 474 940 615 q 913 304 940 387 q 838 153 887 221 q 699 24 777 68 q 532 -20 621 -20 q 400 11 454 -20 q 308 109 345 42 m 563 602 q 410 515 469 602 q 350 289 350 428 q 384 191 350 227 q 477 156 418 156 q 629 241 569 156 q 689 459 689 326 q 656 565 689 529 q 563 602 624 602 "},"]":{"x_min":-39,"x_max":623,"ha":635,"o":"m 382 -183 l -39 -183 l -10 -30 l 181 -30 l 363 902 l 173 902 l 202 1055 l 623 1055 l 382 -183 "},"m":{"x_min":43,"x_max":1366,"ha":1447,"o":"m 870 633 q 997 740 926 703 q 1146 778 1069 778 q 1307 722 1248 778 q 1366 568 1366 666 q 1362 522 1366 548 q 1353 462 1359 495 l 1264 0 l 1018 0 l 1095 396 l 1097 406 q 1115 514 1115 490 q 1093 573 1115 551 q 1035 595 1072 595 q 917 537 965 595 q 847 373 868 480 l 774 0 l 529 0 l 607 396 q 621 473 617 447 q 625 514 625 499 q 604 573 625 552 q 546 595 583 595 q 429 535 479 595 q 359 373 379 476 l 286 0 l 43 0 l 191 760 l 434 760 l 412 648 q 533 745 469 712 q 667 778 597 778 q 802 737 746 778 q 870 633 858 697 "},"ꙅ":{"x_min":-14.796875,"x_max":747.234375,"ha":827,"o":"m 141 735 q 307 767 231 757 q 451 777 383 777 q 693 719 621 777 q 741 540 765 661 q 643 373 719 428 q 402 298 568 318 l 358 293 q 255 268 282 284 q 220 219 227 252 q 245 161 212 181 q 348 141 277 141 q 507 159 427 141 q 666 212 586 177 l 630 27 q 458 -8 541 4 q 300 -19 375 -19 q 44 41 122 -19 q -9 223 -32 102 q 88 394 13 339 q 354 472 163 448 l 398 478 q 493 501 465 485 q 528 545 522 516 q 505 599 535 581 q 405 616 474 616 q 265 600 341 616 q 105 551 189 583 l 141 735 "},"₥":{"x_min":41.375,"x_max":1364.5,"ha":1447,"o":"m 453 -128 l 337 -128 l 571 207 l 607 396 q 617 558 632 521 q 547 594 602 594 q 427 537 476 594 q 358 373 379 479 l 285 0 l 41 0 l 189 759 l 433 759 l 411 648 q 533 745 470 713 q 667 777 596 777 q 798 739 746 777 q 869 636 850 704 l 1044 888 l 1161 888 l 1078 770 q 1146 777 1113 777 q 1330 697 1277 777 q 1353 462 1383 616 l 1263 0 l 1019 0 l 1096 396 l 1101 413 l 1106 441 q 1105 558 1122 521 q 1036 594 1089 594 q 917 537 967 594 l 903 518 q 847 373 865 462 l 774 0 l 542 0 l 453 -128 "},"8":{"x_min":31,"x_max":916,"ha":966,"o":"m 467 453 q 334 399 387 453 q 281 266 281 345 q 315 176 281 209 q 410 144 350 144 q 543 197 490 144 q 597 330 597 250 q 562 419 597 386 q 467 453 527 453 m 299 538 q 190 618 226 569 q 154 735 154 667 q 266 952 154 873 q 579 1031 379 1031 q 827 971 739 1031 q 916 802 916 911 q 854 637 916 706 q 679 538 793 569 q 801 453 762 507 q 841 317 841 399 q 719 70 841 161 q 385 -20 597 -20 q 124 46 217 -20 q 31 233 31 113 q 102 421 31 340 q 299 538 173 502 m 555 867 q 444 826 486 867 q 403 719 403 786 q 433 644 403 673 q 513 616 463 616 q 624 656 582 616 q 666 763 666 696 q 635 838 666 810 q 555 867 605 867 "},"₵":{"x_min":94.03125,"x_max":956.296875,"ha":966,"o":"m 801 55 q 655 0 729 18 q 575 -15 615 -10 l 539 -204 l 429 -204 l 465 -18 q 223 69 326 -8 q 105 455 54 196 q 374 842 153 704 q 649 928 497 919 l 673 1055 l 783 1055 l 758 925 q 832 910 796 921 q 956 854 899 891 l 915 644 q 813 724 870 697 q 724 749 771 744 l 609 160 q 708 184 659 164 q 842 265 775 211 l 801 55 m 501 166 l 613 742 q 534 709 571 732 q 366 455 400 626 q 438 199 334 290 q 501 166 463 177 "},"R":{"x_min":29,"x_max":951,"ha":1070,"o":"m 509 564 q 644 605 598 564 q 690 726 690 646 q 658 800 690 777 q 559 824 626 824 l 451 824 l 399 564 l 509 564 m 365 384 l 289 0 l 29 0 l 226 1013 l 611 1013 q 864 950 778 1013 q 951 766 951 888 q 883 564 951 644 q 699 474 815 485 q 787 420 752 463 q 849 288 822 377 l 935 0 l 675 0 l 599 252 q 543 355 576 327 q 448 384 510 384 l 365 384 "},"ꙭ":{"x_min":49.140625,"x_max":1487.09375,"ha":1536,"o":"m 522 604 q 387 546 441 604 q 312 379 333 488 q 322 211 291 269 q 434 153 353 153 q 567 211 513 153 q 641 379 620 269 q 632 546 662 488 q 522 604 601 604 m 1137 777 q 1423 672 1333 777 q 1476 379 1513 566 q 1309 86 1439 191 q 982 -19 1178 -19 q 708 71 799 -19 q 400 -19 582 -19 q 113 86 204 -19 q 59 379 23 191 q 227 672 96 566 q 555 777 358 777 q 828 686 737 777 q 1137 777 954 777 m 1104 604 q 969 546 1023 604 q 894 379 915 488 q 904 211 873 269 q 1015 153 935 153 q 1148 211 1095 153 q 1223 379 1202 269 q 1214 546 1244 488 q 1104 604 1183 604 m 382 512 l 626 512 l 574 250 l 330 250 l 382 512 m 964 512 l 1208 512 l 1156 250 l 912 250 l 964 512 "},"á":{"x_min":24,"x_max":870,"ha":937,"o":"m 457 342 q 320 313 366 342 q 274 230 274 285 q 301 164 274 188 q 377 141 328 141 q 501 186 451 141 q 568 314 552 231 l 574 342 l 457 342 m 836 433 l 752 0 l 509 0 l 529 111 q 403 12 469 44 q 258 -20 336 -20 q 87 35 150 -20 q 24 186 24 91 q 136 409 24 332 q 460 486 248 486 l 603 486 l 606 505 q 608 518 608 514 q 608 526 608 523 q 566 594 608 571 q 440 617 524 617 q 294 601 365 617 q 158 555 223 586 l 194 740 q 350 768 270 758 q 515 778 430 778 q 766 719 684 778 q 849 543 849 661 q 845 492 849 520 q 836 433 842 465 m 671 1111 l 870 1111 l 573 856 l 437 856 l 671 1111 "},"×":{"x_min":174,"x_max":991,"ha":1164,"o":"m 991 729 l 696 434 l 991 141 l 877 28 l 582 320 l 288 28 l 174 141 l 468 434 l 174 729 l 288 843 l 582 548 l 877 843 l 991 729 "},"o":{"x_min":50,"x_max":904,"ha":954,"o":"m 520 604 q 365 518 426 604 q 304 301 304 433 q 336 191 304 229 q 433 154 369 154 q 588 239 527 154 q 650 458 650 325 q 617 566 650 529 q 520 604 584 604 m 540 778 q 807 691 710 778 q 904 457 904 605 q 873 289 904 370 q 784 141 842 208 q 621 20 715 61 q 410 -20 526 -20 q 146 66 243 -20 q 50 300 50 152 q 81 468 50 386 q 170 617 112 550 q 332 737 238 696 q 540 778 426 778 "},"5":{"x_min":18,"x_max":894.546875,"ha":966,"o":"m 245 1013 l 894 1013 l 857 821 l 416 821 l 386 664 q 448 676 415 672 q 512 681 480 681 q 755 610 668 681 q 843 413 843 539 q 707 97 843 214 q 341 -20 572 -20 q 176 -3 256 -20 q 18 47 96 13 l 58 253 q 204 181 133 204 q 348 158 275 158 q 520 214 455 158 q 585 361 585 270 q 536 464 585 426 q 403 503 487 503 q 279 488 345 503 q 134 443 213 473 l 245 1013 "},"₩":{"x_min":32.5625,"x_max":1587.046875,"ha":1532,"o":"m 153 678 l 150 758 l 67 758 l 86 857 l 146 857 l 139 1012 l 389 1012 l 396 857 l 672 857 l 738 1012 l 990 1012 l 996 857 l 1272 857 l 1338 1012 l 1587 1012 l 1520 857 l 1580 857 l 1560 758 l 1477 758 l 1443 678 l 1544 678 l 1526 579 l 1400 579 l 1151 0 l 850 0 l 824 579 l 734 579 l 484 0 l 183 0 l 158 579 l 32 579 l 51 678 l 153 678 m 1008 579 l 1020 276 l 1151 579 l 1008 579 m 1000 758 l 1003 678 l 1194 678 l 1228 758 l 1000 758 m 408 579 l 421 276 l 552 579 l 408 579 m 811 758 l 776 678 l 819 678 l 816 758 l 811 758 m 400 758 l 404 678 l 594 678 l 629 758 l 400 758 "},"õ":{"x_min":50,"x_max":904,"ha":954,"o":"m 520 604 q 365 518 426 604 q 304 301 304 433 q 336 191 304 229 q 433 154 369 154 q 588 239 527 154 q 650 458 650 325 q 617 566 650 529 q 520 604 584 604 m 540 778 q 807 691 710 778 q 904 457 904 605 q 873 289 904 370 q 784 141 842 208 q 621 20 715 61 q 410 -20 526 -20 q 146 66 243 -20 q 50 300 50 152 q 81 468 50 386 q 170 617 112 550 q 332 737 238 696 q 540 778 426 778 m 561 924 l 527 949 q 521 954 525 951 q 475 975 495 975 q 434 951 452 975 q 409 887 416 928 l 315 887 q 377 1030 333 980 q 485 1080 422 1080 q 533 1070 510 1080 q 580 1041 555 1061 l 616 1012 q 640 996 629 1001 q 662 991 652 991 q 705 1013 688 991 q 730 1078 723 1036 l 825 1078 q 763 936 807 986 q 655 886 719 886 q 612 893 632 886 q 561 924 591 901 "},"₲":{"x_min":52.90625,"x_max":947.484375,"ha":966,"o":"m 712 404 l 628 404 l 655 545 l 899 545 l 807 75 q 621 4 715 27 q 478 -18 550 -14 l 459 -111 l 341 -111 l 359 -14 q 119 122 200 5 q 52 358 52 217 q 68 505 52 426 q 271 890 115 750 q 562 1025 394 1002 l 581 1123 l 699 1123 l 681 1030 q 809 1011 748 1027 q 947 955 884 992 l 914 787 q 797 849 851 830 q 651 875 727 874 l 507 136 q 562 141 533 137 q 670 186 620 149 l 712 404 m 529 857 q 402 779 457 834 q 269 505 304 683 q 257 384 257 439 q 293 231 257 292 q 392 151 328 174 l 529 857 "},"7":{"x_min":109,"x_max":964,"ha":966,"o":"m 200 1013 l 964 1013 l 933 864 l 370 0 l 109 0 l 644 821 l 165 821 l 200 1013 "},"K":{"x_min":29,"x_max":1162,"ha":1076,"o":"m 226 1013 l 487 1013 l 415 648 l 846 1013 l 1162 1013 l 581 521 l 1019 0 l 712 0 l 371 422 l 289 0 l 29 0 l 226 1013 "},",":{"x_min":-48,"x_max":355.15625,"ha":528,"o":"m 111 262 l 355 262 l 315 55 l 96 -198 l -48 -198 l 70 55 l 111 262 "},"d":{"x_min":50,"x_max":1006,"ha":994,"o":"m 426 156 q 578 242 519 156 q 637 468 637 328 q 604 566 637 531 q 512 602 571 602 q 360 516 420 602 q 301 298 301 431 q 333 192 301 228 q 426 156 365 156 m 682 648 l 760 1055 l 1006 1055 l 800 0 l 555 0 l 577 109 q 460 11 522 43 q 327 -20 399 -20 q 124 61 199 -20 q 50 283 50 142 q 76 453 50 370 q 151 604 102 536 q 290 733 212 689 q 456 778 368 778 q 589 746 534 778 q 682 648 644 715 "},"¨":{"x_min":211,"x_max":672,"ha":695,"o":"m 242 1075 l 404 1075 l 370 908 l 211 908 l 242 1075 m 512 1075 l 672 1075 l 638 908 l 479 908 l 512 1075 "},"Ô":{"x_min":50,"x_max":1130,"ha":1181,"o":"m 854 597 q 800 779 854 717 q 644 842 746 842 q 416 720 508 842 q 325 414 325 598 q 378 233 325 298 q 527 169 432 169 q 666 201 605 169 q 769 299 726 234 q 831 438 809 361 q 854 597 854 516 m 681 1031 q 1006 918 883 1031 q 1130 625 1130 806 q 1092 391 1130 501 q 982 194 1054 281 q 774 33 894 86 q 496 -20 654 -20 q 172 91 295 -20 q 50 385 50 203 q 87 619 50 509 q 197 817 124 729 q 404 978 283 925 q 681 1031 524 1031 m 623 1288 l 859 1288 l 963 1109 l 847 1109 l 736 1218 l 579 1109 l 458 1109 l 623 1288 "},"E":{"x_min":29,"x_max":930,"ha":949,"o":"m 226 1013 l 930 1013 l 891 816 l 448 816 l 411 627 l 828 627 l 789 430 l 373 430 l 328 197 l 785 197 l 748 0 l 29 0 l 226 1013 "},"Y":{"x_min":87.5625,"x_max":1124.03125,"ha":1006,"o":"m 87 1013 l 348 1013 l 521 637 l 822 1013 l 1124 1013 l 624 422 l 542 0 l 281 0 l 363 422 l 87 1013 "},"\"":{"x_min":132,"x_max":592,"ha":724,"o":"m 592 1013 l 592 637 l 431 637 l 431 1013 l 592 1013 m 293 1013 l 293 637 l 132 637 l 132 1013 l 293 1013 "},"ê":{"x_min":50,"x_max":889,"ha":942,"o":"m 873 351 l 865 313 l 297 313 q 296 301 297 308 q 296 289 296 293 q 340 177 296 214 q 473 141 384 141 q 635 164 550 141 q 814 233 720 187 l 776 44 q 599 -4 687 11 q 421 -20 512 -20 q 146 62 243 -20 q 50 294 50 144 q 80 462 50 381 q 170 612 111 544 q 337 735 240 693 q 553 778 435 778 q 798 695 707 778 q 889 475 889 613 q 885 417 889 447 q 873 351 881 387 m 643 463 q 646 480 645 471 q 648 498 648 490 q 615 585 648 553 q 527 617 583 617 q 406 577 456 617 q 330 463 356 538 l 643 463 m 523 1111 l 701 1111 l 825 856 l 704 856 l 598 1008 l 434 856 l 301 856 l 523 1111 "},"Ï":{"x_min":29,"x_max":613,"ha":517,"o":"m 226 1013 l 487 1013 l 289 0 l 29 0 l 226 1013 m 183 1288 l 344 1288 l 312 1121 l 152 1121 l 183 1288 m 451 1288 l 613 1288 l 579 1121 l 420 1121 l 451 1288 "},"Â":{"x_min":-90,"x_max":960,"ha":1075,"o":"m 682 184 l 278 184 l 177 0 l -90 0 l 482 1013 l 780 1013 l 960 0 l 711 0 l 682 184 m 376 368 l 648 368 l 587 758 l 376 368 m 541 1288 l 777 1288 l 881 1109 l 765 1109 l 654 1218 l 497 1109 l 376 1109 l 541 1288 "},"Í":{"x_min":29,"x_max":622,"ha":517,"o":"m 226 1013 l 487 1013 l 289 0 l 29 0 l 226 1013 m 431 1288 l 622 1288 l 405 1109 l 265 1109 l 431 1288 "},"´":{"x_min":315,"x_max":748,"ha":695,"o":"m 549 1111 l 748 1111 l 451 856 l 315 856 l 549 1111 "},"ì":{"x_min":43,"x_max":435.15625,"ha":476,"o":"m 191 760 l 435 760 l 286 0 l 43 0 l 191 760 m 278 1111 l 420 856 l 286 856 l 86 1111 l 278 1111 "},"±":{"x_min":147,"x_max":1016,"ha":1164,"o":"m 662 871 l 662 631 l 1016 631 l 1016 471 l 662 471 l 662 231 l 501 231 l 501 471 l 147 471 l 147 631 l 501 631 l 501 871 l 662 871 m 147 161 l 1016 161 l 1016 0 l 147 0 l 147 161 "},"Ú":{"x_min":94,"x_max":1098.453125,"ha":1128,"o":"m 226 1013 l 487 1013 l 369 406 q 359 348 362 373 q 356 304 356 323 q 392 204 356 237 q 498 172 427 172 q 644 225 593 172 q 719 405 694 278 l 837 1013 l 1098 1013 l 980 405 q 813 80 936 181 q 460 -20 690 -20 q 187 57 281 -20 q 94 280 94 134 q 97 335 94 305 q 108 405 100 365 l 226 1013 m 729 1288 l 920 1288 l 703 1109 l 563 1109 l 729 1288 "},"|":{"x_min":176,"x_max":330,"ha":507,"o":"m 330 1061 l 330 -328 l 176 -328 l 176 1061 l 330 1061 "},"§":{"x_min":-46.265625,"x_max":685.8125,"ha":695,"o":"m 685 991 l 656 838 q 546 878 595 865 q 456 891 498 891 q 370 870 402 891 q 339 815 339 849 q 355 778 339 795 q 410 743 372 761 l 471 715 q 633 611 590 662 q 677 485 677 560 q 624 337 677 401 q 472 233 572 272 q 529 179 511 209 q 548 112 548 149 q 452 -64 548 2 q 197 -132 356 -132 q 79 -122 140 -132 q -46 -92 18 -112 l -13 68 q 109 24 55 39 q 205 10 163 10 q 290 31 257 10 q 323 85 323 52 q 306 122 323 106 q 237 162 290 137 l 145 204 q 26 290 64 241 q -11 409 -11 340 q 38 558 -11 493 q 184 662 88 622 q 131 721 148 690 q 115 789 115 753 q 208 962 115 894 q 452 1031 302 1031 q 567 1021 508 1031 q 685 991 625 1011 m 300 579 q 217 535 246 565 q 189 462 189 504 q 221 392 189 421 q 365 319 254 363 q 449 368 419 338 q 479 437 479 399 q 440 510 479 479 q 300 579 401 542 "},"Ý":{"x_min":87.5625,"x_max":1124.03125,"ha":1006,"o":"m 87 1013 l 348 1013 l 521 637 l 822 1013 l 1124 1013 l 624 422 l 542 0 l 281 0 l 363 422 l 87 1013 m 676 1288 l 867 1288 l 650 1109 l 510 1109 l 676 1288 "},"b":{"x_min":43,"x_max":940,"ha":994,"o":"m 563 602 q 410 515 470 602 q 351 289 351 428 q 385 191 351 227 q 478 156 418 156 q 629 241 569 156 q 689 459 689 326 q 656 565 689 529 q 563 602 624 602 m 308 109 l 286 0 l 43 0 l 248 1055 l 491 1055 l 412 648 q 529 746 468 715 q 662 778 590 778 q 865 696 790 778 q 940 474 940 615 q 913 304 940 387 q 839 153 887 221 q 699 24 777 68 q 533 -20 622 -20 q 400 11 455 -20 q 308 109 346 43 "},"q":{"x_min":50,"x_max":947,"ha":994,"o":"m 681 648 l 702 760 l 947 760 l 743 -289 l 498 -289 l 576 109 q 460 11 521 42 q 327 -20 399 -20 q 124 61 199 -20 q 50 283 50 142 q 76 453 50 370 q 151 604 102 536 q 290 733 212 689 q 456 778 368 778 q 589 746 534 778 q 681 648 644 715 m 426 156 q 578 242 519 156 q 637 468 637 328 q 604 566 637 531 q 512 602 571 602 q 360 516 420 602 q 301 298 301 431 q 333 192 301 228 q 426 156 365 156 "},"Ö":{"x_min":50,"x_max":1130,"ha":1181,"o":"m 854 597 q 800 779 854 717 q 644 842 746 842 q 416 720 508 842 q 325 414 325 598 q 378 233 325 298 q 527 169 432 169 q 666 201 605 169 q 769 299 726 234 q 831 438 809 361 q 854 597 854 516 m 681 1031 q 1006 918 883 1031 q 1130 625 1130 806 q 1092 391 1130 501 q 982 194 1054 281 q 774 33 894 86 q 496 -20 654 -20 q 172 91 295 -20 q 50 385 50 203 q 87 619 50 509 q 197 817 124 729 q 404 978 283 925 q 681 1031 524 1031 m 535 1288 l 696 1288 l 664 1121 l 504 1121 l 535 1288 m 803 1288 l 965 1288 l 931 1121 l 772 1121 l 803 1288 "},"z":{"x_min":-12,"x_max":814,"ha":808,"o":"m 151 760 l 814 760 l 780 590 l 307 174 l 700 174 l 666 0 l -12 0 l 19 169 l 494 586 l 118 586 l 151 760 "},"ꚍ":{"x_min":46.796875,"x_max":869.484375,"ha":805,"o":"m 75 759 l 869 759 l 840 609 l 567 609 l 510 313 q 513 187 492 222 q 600 159 535 153 l 615 160 l 584 1 l 491 0 q 295 79 354 -2 q 265 313 236 160 l 323 609 l 46 609 l 75 759 "},"Ꚋ":{"x_min":66.46875,"x_max":1199.09375,"ha":1311,"o":"m 105 1012 l 1039 1012 l 1000 815 l 663 815 l 627 626 l 981 626 q 1165 545 1111 626 q 1199 431 1199 495 q 1188 311 1199 366 l 1146 98 q 659 -278 1073 -278 l 607 -278 l 645 -80 l 686 -80 q 885 98 851 -80 l 902 187 q 925 337 925 307 q 918 384 925 366 q 889 416 910 402 q 836 429 867 429 l 588 429 l 505 0 l 244 0 l 402 815 l 66 815 l 105 1012 "},"ã":{"x_min":24,"x_max":849,"ha":937,"o":"m 457 342 q 320 313 366 342 q 274 230 274 285 q 301 164 274 188 q 377 141 328 141 q 501 186 451 141 q 568 314 552 231 l 574 342 l 457 342 m 836 433 l 752 0 l 509 0 l 529 111 q 403 12 469 44 q 258 -20 336 -20 q 87 35 150 -20 q 24 186 24 91 q 136 409 24 332 q 460 486 248 486 l 603 486 l 606 505 q 608 518 608 514 q 608 526 608 523 q 566 594 608 571 q 440 617 524 617 q 294 601 365 617 q 158 555 223 586 l 194 740 q 350 768 270 758 q 515 778 430 778 q 766 719 684 778 q 849 543 849 661 q 845 492 849 520 q 836 433 842 465 m 552 924 l 518 949 q 512 954 516 951 q 466 975 486 975 q 425 951 443 975 q 400 887 407 928 l 306 887 q 368 1030 324 980 q 476 1080 413 1080 q 524 1070 501 1080 q 571 1041 546 1061 l 607 1012 q 631 996 620 1001 q 653 991 643 991 q 696 1013 679 991 q 721 1078 714 1036 l 816 1078 q 754 936 798 986 q 646 886 710 886 q 603 893 623 886 q 552 924 582 901 "},"æ":{"x_min":24,"x_max":1400,"ha":1455,"o":"m 457 342 q 320 313 366 342 q 274 230 274 285 q 301 164 274 188 q 377 141 328 141 q 501 186 451 141 q 568 314 552 231 l 574 342 l 457 342 m 197 740 q 352 768 277 758 q 499 778 428 778 q 666 753 600 778 q 771 676 733 728 q 908 753 836 728 q 1068 778 980 778 q 1309 695 1219 778 q 1400 476 1400 612 q 1396 414 1400 445 q 1386 351 1393 383 l 1376 313 l 810 313 q 809 301 810 308 q 809 289 809 293 q 853 177 809 214 q 986 141 897 141 q 1146 163 1062 141 q 1325 233 1231 186 l 1289 44 q 1112 -4 1200 11 q 932 -20 1023 -20 q 735 14 815 -20 q 610 119 655 49 q 447 14 530 48 q 269 -20 363 -20 q 89 34 154 -20 q 24 185 24 89 q 136 409 24 332 q 463 486 248 486 l 602 486 l 606 506 q 608 518 608 514 q 609 526 609 523 q 566 594 609 571 q 443 617 524 617 q 295 601 366 617 q 161 555 225 586 l 197 740 m 1156 463 q 1159 480 1158 471 q 1161 498 1161 490 q 1128 585 1161 553 q 1040 617 1095 617 q 918 577 969 617 q 843 463 868 538 l 1156 463 "},"®":{"x_min":192,"x_max":1197,"ha":1389,"o":"m 694 903 q 541 873 612 903 q 412 784 471 843 q 323 655 353 725 q 294 502 294 585 q 323 350 294 420 q 412 220 353 279 q 541 133 470 162 q 694 104 612 104 q 847 132 778 104 q 976 220 917 161 q 1065 350 1035 279 q 1095 502 1095 420 q 1065 655 1095 585 q 976 784 1035 725 q 846 873 917 844 q 694 903 776 903 m 655 702 l 632 702 l 632 562 l 655 562 q 735 579 708 562 q 762 633 762 597 q 735 685 762 668 q 655 702 709 702 m 680 796 q 859 755 800 796 q 918 633 918 715 q 882 536 918 574 q 781 487 846 498 q 833 445 809 472 q 877 378 857 417 l 952 229 l 797 229 l 724 373 q 679 448 699 426 q 640 470 659 470 l 632 470 l 632 229 l 488 229 l 488 796 l 680 796 m 694 1007 q 886 969 797 1007 q 1049 858 975 932 q 1160 695 1123 784 q 1197 502 1197 606 q 1160 310 1197 399 q 1049 148 1123 222 q 886 37 975 74 q 694 0 797 0 q 502 37 591 0 q 339 148 413 74 q 228 310 265 222 q 192 502 192 399 q 228 695 192 606 q 339 858 265 784 q 502 969 413 932 q 694 1007 591 1007 "},"É":{"x_min":29,"x_max":930,"ha":949,"o":"m 226 1013 l 930 1013 l 891 816 l 448 816 l 411 627 l 828 627 l 789 430 l 373 430 l 328 197 l 785 197 l 748 0 l 29 0 l 226 1013 m 673 1288 l 864 1288 l 647 1109 l 507 1109 l 673 1288 "},"~":{"x_min":147,"x_max":1016,"ha":1164,"o":"m 1016 576 l 1016 411 q 883 333 944 356 q 757 310 822 310 q 588 349 685 310 q 573 355 578 353 q 558 361 568 357 q 389 403 453 403 q 271 376 330 403 q 147 294 213 350 l 147 459 q 279 537 219 514 q 405 561 340 561 q 574 521 477 561 q 589 515 584 517 q 604 509 594 513 q 773 468 709 468 q 888 493 831 468 q 1016 576 946 518 "},"³":{"x_min":56,"x_max":593,"ha":608,"o":"m 451 759 q 529 719 502 750 q 556 636 556 687 q 476 493 556 543 q 250 443 397 443 q 147 451 196 443 q 56 474 98 459 l 78 592 q 158 554 117 567 q 239 542 198 542 q 355 567 313 542 q 397 638 397 593 q 363 692 397 675 q 259 710 329 710 l 207 710 l 225 803 l 284 803 q 393 822 355 803 q 432 879 432 842 q 406 918 432 905 q 330 931 380 931 q 250 922 293 931 q 155 895 207 913 l 176 1007 q 275 1024 225 1018 q 375 1031 326 1031 q 536 997 480 1031 q 593 900 593 963 q 554 807 593 845 q 451 759 516 769 "},"₧":{"x_min":29.15625,"x_max":2017.71875,"ha":2067,"o":"m 451 823 l 396 540 l 540 540 q 681 583 632 540 q 730 710 730 627 q 695 794 730 765 q 594 823 660 823 l 451 823 m 1350 585 l 1244 585 l 1182 264 q 1178 246 1179 253 q 1177 231 1177 238 q 1198 187 1177 200 q 1267 173 1218 173 l 1281 173 l 1289 219 q 1390 173 1337 191 l 1393 173 l 1393 172 q 1431 161 1411 166 q 1584 141 1505 141 q 1699 160 1660 141 q 1738 213 1738 178 q 1716 251 1738 238 q 1627 279 1694 265 l 1582 287 q 1397 367 1452 314 q 1341 514 1341 420 q 1350 585 1341 552 m 969 585 q 883 461 939 514 q 739 377 823 403 q 530 351 656 351 l 358 351 l 290 0 l 29 0 l 226 1012 l 659 1012 q 909 940 819 1012 q 998 759 990 872 l 1034 759 l 1076 975 l 1320 975 l 1279 759 l 1527 759 l 1526 752 q 1711 777 1604 777 q 1865 767 1789 777 q 2017 735 1941 756 l 1981 547 q 1840 598 1910 581 q 1706 616 1769 616 q 1595 597 1634 616 q 1556 544 1556 579 q 1578 512 1556 524 q 1663 486 1599 499 l 1707 478 q 1913 397 1854 446 q 1972 261 1972 348 q 1869 54 1972 128 q 1578 -19 1765 -19 q 1419 -7 1500 -19 q 1359 3 1389 -2 l 1358 0 l 1154 0 q 986 46 1044 0 q 929 179 929 92 q 931 219 929 198 q 937 263 933 241 l 999 585 l 969 585 "},"¡":{"x_min":96,"x_max":537.84375,"ha":633,"o":"m 490 772 l 246 772 l 293 1013 l 537 1013 l 490 772 m 340 0 l 96 0 l 173 389 l 261 673 l 436 673 l 416 389 l 340 0 "},"Ꚍ":{"x_min":66.46875,"x_max":1039.03125,"ha":947,"o":"m 105 1012 l 1039 1012 l 1000 815 l 663 815 l 578 376 q 708 197 543 197 l 748 197 l 710 0 l 657 0 q 364 93 449 0 q 317 376 280 187 l 402 815 l 66 815 l 105 1012 "},"ꙩ":{"x_min":50,"x_max":904,"ha":954,"o":"m 382 512 l 626 512 l 574 250 l 330 250 l 382 512 m 520 604 q 365 518 426 604 q 304 301 304 433 q 336 191 304 229 q 433 154 369 154 q 588 239 527 154 q 650 458 650 325 q 617 566 650 529 q 520 604 584 604 m 540 778 q 807 691 710 778 q 904 457 904 605 q 873 289 904 370 q 784 141 842 208 q 621 20 715 61 q 410 -20 526 -20 q 146 66 243 -20 q 50 300 50 152 q 81 468 50 386 q 170 617 112 550 q 332 737 238 696 q 540 778 426 778 "},"[":{"x_min":-14,"x_max":647,"ha":635,"o":"m 226 1055 l 647 1055 l 616 902 l 427 902 l 244 -30 l 436 -30 l 405 -183 l -14 -183 l 226 1055 "},"L":{"x_min":29,"x_max":785.53125,"ha":885,"o":"m 226 1013 l 487 1013 l 328 197 l 785 197 l 748 0 l 29 0 l 226 1013 "}," ":{"x_min":0,"x_max":0,"ha":484},"ꙫ":{"x_min":51.328125,"x_max":1153.921875,"ha":1205,"o":"m 413 484 l 589 484 l 548 276 l 372 276 l 413 484 m 657 484 l 833 484 l 792 276 l 616 276 l 657 484 m 648 604 q 419 546 505 604 q 312 379 333 488 q 354 211 291 269 q 560 153 417 153 q 785 211 699 153 q 892 379 871 269 q 850 546 913 488 q 648 604 788 604 m 680 777 q 1059 672 935 777 q 1145 379 1182 566 q 945 86 1108 191 q 526 -19 781 -19 q 146 86 270 -19 q 59 379 23 191 q 260 672 96 566 q 680 777 425 777 "},"%":{"x_min":77,"x_max":1315,"ha":1392,"o":"m 1061 417 q 964 360 1002 417 q 927 212 927 303 q 947 124 927 153 q 1010 95 968 95 q 1107 151 1070 95 q 1145 300 1145 208 q 1123 387 1145 358 q 1061 417 1102 417 m 1080 531 q 1250 473 1186 531 q 1315 320 1315 415 q 1225 74 1315 168 q 989 -20 1135 -20 q 819 38 883 -20 q 755 192 755 97 q 844 437 755 343 q 1080 531 934 531 m 360 -20 l 194 -20 l 1032 1031 l 1198 1031 l 360 -20 m 403 1031 q 573 972 509 1031 q 638 819 638 914 q 547 574 638 668 q 311 480 456 480 q 141 537 205 480 q 77 690 77 595 q 167 936 77 841 q 403 1031 258 1031 m 382 917 q 286 859 323 917 q 249 712 249 802 q 269 623 249 653 q 331 593 290 593 q 428 650 391 593 q 466 800 466 708 q 444 887 466 857 q 382 917 423 917 "},"P":{"x_min":29,"x_max":999,"ha":1018,"o":"m 226 1013 l 659 1013 q 909 940 819 1013 q 999 737 999 867 q 969 586 999 658 q 883 461 939 515 q 739 378 823 404 q 529 352 656 352 l 357 352 l 289 0 l 29 0 l 226 1013 m 451 824 l 395 541 l 540 541 q 681 584 632 541 q 730 710 730 627 q 695 794 730 765 q 594 824 660 824 l 451 824 "},"À":{"x_min":-90,"x_max":960,"ha":1075,"o":"m 682 184 l 278 184 l 177 0 l -90 0 l 482 1013 l 780 1013 l 960 0 l 711 0 l 682 184 m 376 368 l 648 368 l 587 758 l 376 368 m 637 1288 l 735 1109 l 614 1109 l 458 1288 l 637 1288 "},"_":{"x_min":-14,"x_max":708,"ha":695,"o":"m 708 -199 l 708 -328 l -14 -328 l -14 -199 l 708 -199 "},"ñ":{"x_min":43,"x_max":908,"ha":989,"o":"m 895 462 l 806 0 l 562 0 l 639 396 q 651 461 647 434 q 656 504 656 488 q 632 571 656 547 q 563 595 608 595 q 434 536 488 595 q 359 373 380 477 l 286 0 l 43 0 l 191 760 l 435 760 l 412 648 q 547 746 479 714 q 689 778 615 778 q 851 723 794 778 q 908 568 908 668 q 904 520 908 546 q 895 462 901 493 m 577 924 l 543 949 q 537 954 541 951 q 491 975 511 975 q 450 951 468 975 q 425 887 432 928 l 331 887 q 393 1030 349 980 q 501 1080 438 1080 q 549 1070 526 1080 q 596 1041 571 1061 l 632 1012 q 656 996 645 1001 q 678 991 668 991 q 721 1013 704 991 q 746 1078 739 1036 l 841 1078 q 779 936 823 986 q 671 886 735 886 q 628 893 648 886 q 577 924 607 901 "},"+":{"x_min":147,"x_max":1016,"ha":1164,"o":"m 662 870 l 662 515 l 1016 515 l 1016 355 l 662 355 l 662 0 l 501 0 l 501 355 l 147 355 l 147 515 l 501 515 l 501 870 l 662 870 "},"½":{"x_min":76.921875,"x_max":1438,"ha":1438,"o":"m 97 559 l 237 559 l 306 912 l 148 877 l 168 986 l 334 1019 l 482 1019 l 392 559 l 532 559 l 511 453 l 76 453 l 97 559 m 1126 114 l 1382 114 l 1360 0 l 902 0 l 923 103 l 1170 284 q 1251 357 1225 323 q 1278 419 1278 391 q 1255 462 1278 446 q 1194 478 1233 478 q 1098 462 1148 478 q 1000 417 1049 446 l 1025 542 q 1132 569 1081 560 q 1229 578 1182 578 q 1384 541 1330 578 q 1438 436 1438 504 q 1401 332 1438 382 q 1283 224 1364 281 l 1126 114 m 403 -20 l 237 -20 l 1074 1031 l 1241 1031 l 403 -20 "},"Ꙧ":{"x_min":29.15625,"x_max":1810.859375,"ha":1751,"o":"m 226 1012 l 547 1012 l 677 474 l 1019 1012 l 1810 1012 l 1772 815 l 1314 815 l 1155 0 l 908 0 l 1052 747 l 701 194 l 560 194 l 421 747 l 276 0 l 29 0 l 226 1012 "},"Æ":{"x_min":-109,"x_max":1488.21875,"ha":1507,"o":"m 667 839 l 413 425 l 669 425 l 749 839 l 667 839 m 524 1013 l 1488 1013 l 1449 816 l 1006 816 l 970 627 l 1387 627 l 1348 430 l 931 430 l 887 197 l 1343 197 l 1306 0 l 587 0 l 633 237 l 299 237 l 152 0 l -109 0 l 524 1013 "},"ꙍ":{"x_min":44.078125,"x_max":1568.046875,"ha":1629,"o":"m 1511 759 q 1564 547 1553 672 q 1568 470 1568 507 q 1553 318 1568 392 q 1438 78 1523 164 q 1194 -18 1344 -18 q 1069 32 1140 -18 q 940 126 1005 79 q 777 177 859 177 q 593 126 695 177 l 428 32 q 284 -18 338 -18 q 76 78 134 -18 q 44 215 44 132 q 54 318 44 262 q 133 547 75 427 q 267 759 192 672 l 476 759 q 372 558 426 691 q 305 347 322 433 q 297 271 297 303 q 369 174 297 174 q 512 224 408 174 q 677 288 628 280 q 800 300 742 300 q 920 288 859 300 q 1060 224 965 279 q 1183 174 1147 174 q 1314 347 1281 174 q 1330 539 1330 427 q 1330 558 1330 548 q 1303 759 1327 691 l 1511 759 "},"₣":{"x_min":4.75,"x_max":958.328125,"ha":966,"o":"m 116 303 l 254 1012 l 958 1012 l 919 815 l 476 815 l 440 626 l 857 626 l 817 429 l 401 429 l 377 303 l 457 303 l 432 176 l 352 176 l 318 0 l 56 0 l 91 176 l 4 176 l 29 303 l 116 303 "},"Ë":{"x_min":29,"x_max":930,"ha":949,"o":"m 226 1013 l 930 1013 l 891 816 l 448 816 l 411 627 l 828 627 l 789 430 l 373 430 l 328 197 l 785 197 l 748 0 l 29 0 l 226 1013 m 425 1288 l 586 1288 l 554 1121 l 394 1121 l 425 1288 m 693 1288 l 855 1288 l 821 1121 l 662 1121 l 693 1288 "},"'":{"x_min":132,"x_max":293,"ha":425,"o":"m 293 1013 l 293 637 l 132 637 l 132 1013 l 293 1013 "},"ª":{"x_min":59.8125,"x_max":732,"ha":783,"o":"m 86 389 l 639 389 l 612 253 l 59 253 l 86 389 m 469 733 q 331 713 369 733 q 293 647 293 694 q 314 599 293 617 q 371 582 335 582 q 472 620 428 582 q 527 718 516 658 l 530 733 l 469 733 m 725 790 l 666 486 l 498 486 l 515 571 q 419 495 470 519 q 299 472 368 472 q 168 509 215 472 q 121 615 121 547 q 204 773 121 720 q 453 827 288 827 l 548 827 l 551 840 q 552 846 552 843 q 552 857 552 849 q 526 902 552 887 q 449 918 500 918 q 330 906 389 918 q 213 870 271 894 l 237 992 q 363 1021 303 1011 q 473 1031 422 1031 q 665 987 599 1031 q 732 861 732 944 q 730 823 732 840 q 725 790 728 805 "},"Ꚕ":{"x_min":147.171875,"x_max":1101.4375,"ha":1122,"o":"m 543 699 l 529 626 l 883 626 q 1067 545 1012 626 q 1101 431 1101 496 q 1090 311 1101 367 l 1030 0 l 769 0 l 805 187 q 828 334 828 307 q 820 385 828 366 q 791 416 813 404 q 737 429 769 429 l 491 429 l 408 0 l 147 0 l 282 699 q 401 931 311 849 q 630 1012 491 1012 l 821 1012 l 790 853 l 695 853 q 593 821 626 853 q 543 699 561 790 "},"₭":{"x_min":16.953125,"x_max":1020.71875,"ha":966,"o":"m 130 585 l 213 1012 l 437 1012 l 365 642 l 760 1012 l 1020 1012 l 565 585 l 823 585 l 803 482 l 542 482 l 867 0 l 586 0 l 318 398 l 240 0 l 16 0 l 110 482 l 35 482 l 56 585 l 130 585 "},"ð":{"x_min":50,"x_max":941.984375,"ha":954,"o":"m 649 504 q 579 531 614 522 q 509 541 545 541 q 359 477 414 541 q 304 306 304 413 q 337 193 304 232 q 435 154 371 154 q 591 239 530 154 q 653 460 653 325 q 650 496 653 469 q 649 504 650 500 m 816 746 q 881 612 859 684 q 904 461 904 540 q 873 290 904 373 q 783 140 842 208 q 620 20 714 61 q 409 -20 525 -20 q 148 64 246 -20 q 50 288 50 149 q 173 597 50 479 q 495 716 296 716 q 558 711 528 716 q 612 697 587 706 l 509 843 l 248 770 l 224 857 l 455 921 l 362 1055 l 601 1055 l 657 976 l 918 1048 l 941 962 l 711 898 l 816 746 "},"T":{"x_min":67,"x_max":1039,"ha":947,"o":"m 106 1013 l 1039 1013 l 1000 816 l 663 816 l 505 0 l 244 0 l 403 816 l 67 816 l 106 1013 "},"ꙧ":{"x_min":39.34375,"x_max":1421.5625,"ha":1384,"o":"m 187 759 l 466 759 l 563 379 l 808 759 l 1421 759 l 1392 609 l 1059 609 l 940 0 l 698 0 l 697 0 l 781 428 l 598 145 l 439 145 l 366 430 l 282 0 l 39 0 l 187 759 "},"Þ":{"x_min":29,"x_max":965,"ha":1031,"o":"m 226 1013 l 487 1013 l 458 861 l 625 861 q 874 788 784 861 q 965 585 965 715 q 935 435 965 506 q 849 311 905 364 q 704 226 789 252 q 495 200 620 200 l 328 200 l 289 0 l 29 0 l 226 1013 m 420 673 l 366 389 l 505 389 q 646 432 597 389 q 696 559 696 476 q 661 643 696 614 q 560 673 627 673 l 420 673 "},"₮":{"x_min":67.140625,"x_max":1038.359375,"ha":947,"o":"m 581 387 l 505 0 l 244 0 l 290 237 l 215 198 l 196 250 l 304 306 l 326 420 l 250 381 l 231 433 l 339 489 l 403 815 l 67 815 l 105 1012 l 1038 1012 l 1000 815 l 664 815 l 630 640 l 704 678 l 724 626 l 617 571 l 594 457 l 669 495 l 689 443 l 581 387 "},"j":{"x_min":-177.6875,"x_max":492.15625,"ha":476,"o":"m 191 760 l 435 760 l 289 13 q 172 -223 258 -146 q -56 -300 87 -300 l -177 -300 l -147 -141 l -104 -141 q -4 -110 -35 -141 q 44 13 27 -79 l 191 760 m 248 1055 l 492 1055 l 453 858 l 209 858 l 248 1055 "},"1":{"x_min":60,"x_max":803.96875,"ha":966,"o":"m 96 180 l 327 180 l 454 835 l 207 786 l 242 964 l 487 1013 l 735 1013 l 574 180 l 803 180 l 769 0 l 60 0 l 96 180 "},"₡":{"x_min":50.1875,"x_max":962.390625,"ha":966,"o":"m 325 0 q 250 28 285 10 l 208 -61 l 81 -61 l 156 99 q 50 388 50 209 q 86 617 50 510 q 191 813 122 725 q 391 974 274 918 q 594 1028 486 1021 l 619 1080 l 746 1080 l 720 1025 q 788 1012 754 1020 q 800 1008 794 1010 l 834 1080 l 962 1080 l 910 969 q 937 955 923 962 l 898 746 q 827 794 863 775 l 533 169 q 666 194 595 169 q 826 271 737 219 l 785 47 q 618 -2 698 14 q 466 -19 538 -19 q 444 -18 455 -19 l 424 -61 l 297 -61 l 325 0 m 484 796 q 402 720 440 767 q 303 419 303 600 l 303 412 l 484 796 m 354 248 q 364 236 358 242 q 417 194 387 210 l 718 834 q 646 841 683 841 l 633 841 l 354 248 "},"ä":{"x_min":24,"x_max":849,"ha":937,"o":"m 457 342 q 320 313 366 342 q 274 230 274 285 q 301 164 274 188 q 377 141 328 141 q 501 186 451 141 q 568 314 552 231 l 574 342 l 457 342 m 836 433 l 752 0 l 509 0 l 529 111 q 403 12 469 44 q 258 -20 336 -20 q 87 35 150 -20 q 24 186 24 91 q 136 409 24 332 q 460 486 248 486 l 603 486 l 606 505 q 608 518 608 514 q 608 526 608 523 q 566 594 608 571 q 440 617 524 617 q 294 601 365 617 q 158 555 223 586 l 194 740 q 350 768 270 758 q 515 778 430 778 q 766 719 684 778 q 849 543 849 661 q 845 492 849 520 q 836 433 842 465 m 364 1075 l 526 1075 l 492 908 l 333 908 l 364 1075 m 634 1075 l 794 1075 l 760 908 l 601 908 l 634 1075 "},"<":{"x_min":147,"x_max":1016,"ha":1164,"o":"m 1016 659 l 362 434 l 1016 210 l 1016 41 l 147 354 l 147 515 l 1016 829 l 1016 659 "},"£":{"x_min":9.484375,"x_max":959.34375,"ha":966,"o":"m 959 995 l 922 801 q 834 839 882 825 q 738 853 787 853 q 606 811 654 853 q 541 679 559 769 l 519 564 l 772 564 l 741 402 l 487 402 l 443 180 l 810 180 l 776 0 l 9 0 l 44 180 l 197 180 l 239 402 l 109 402 l 140 564 l 271 564 l 294 679 q 431 946 329 862 q 720 1031 534 1031 q 842 1022 783 1031 q 959 995 902 1013 "},"¹":{"x_min":92.921875,"x_max":548.71875,"ha":608,"o":"m 113 559 l 253 559 l 322 912 l 164 877 l 184 986 l 350 1019 l 498 1019 l 408 559 l 548 559 l 527 453 l 92 453 l 113 559 "},"t":{"x_min":59.953125,"x_max":707.1875,"ha":664,"o":"m 500 975 l 458 760 l 707 760 l 672 586 l 424 586 l 361 264 q 358 246 359 253 q 357 232 357 239 q 377 187 357 201 q 447 174 398 174 l 572 174 l 538 0 l 334 0 q 166 46 224 0 q 109 179 109 92 q 111 219 109 198 q 117 264 113 241 l 179 586 l 59 586 l 93 760 l 214 760 l 256 975 l 500 975 "},"¬":{"x_min":147,"x_max":1016,"ha":1164,"o":"m 147 617 l 1016 617 l 1016 195 l 857 195 l 857 456 l 147 456 l 147 617 "},"Ꙗ":{"x_min":29.15625,"x_max":1412.734375,"ha":1528,"o":"m 829 368 l 1101 368 l 1040 758 l 829 368 m 1135 184 l 731 184 l 630 0 l 362 0 l 592 406 l 369 406 l 290 0 l 29 0 l 225 1012 l 486 1012 l 407 604 l 704 604 l 935 1012 l 1233 1012 l 1412 0 l 1164 0 l 1135 184 "},"ù":{"x_min":83,"x_max":946,"ha":989,"o":"m 93 295 l 183 760 l 426 760 l 349 364 q 337 298 341 325 q 333 255 333 270 q 357 188 333 212 q 425 165 381 165 q 554 223 500 165 q 629 385 609 281 l 702 760 l 946 760 l 799 0 l 554 0 l 576 110 q 445 12 514 45 q 300 -20 376 -20 q 140 34 197 -20 q 83 190 83 89 q 85 240 83 214 q 93 295 88 266 m 521 1111 l 663 856 l 529 856 l 329 1111 l 521 1111 "},"W":{"x_min":149,"x_max":1588,"ha":1532,"o":"m 149 1013 l 390 1013 l 421 276 l 739 1013 l 987 1013 l 1021 276 l 1328 1013 l 1588 1013 l 1151 0 l 856 0 l 822 770 l 494 0 l 192 0 l 149 1013 "},"ꚕ":{"x_min":14.25,"x_max":878.296875,"ha":989,"o":"m 867 462 l 777 0 l 533 0 l 548 75 l 602 352 q 624 489 621 452 q 619 544 627 526 q 588 581 610 568 q 535 594 566 594 q 404 535 459 594 q 329 373 349 477 l 257 0 l 14 0 l 158 741 q 278 975 187 893 q 505 1055 366 1055 l 696 1055 l 666 895 l 553 895 q 452 864 484 895 q 402 741 420 833 l 384 649 q 518 746 451 715 q 661 777 586 777 q 845 697 792 777 q 867 462 897 616 "},"ï":{"x_min":43,"x_max":576,"ha":476,"o":"m 191 760 l 435 760 l 286 0 l 43 0 l 191 760 m 146 1075 l 308 1075 l 274 908 l 115 908 l 146 1075 m 416 1075 l 576 1075 l 542 908 l 383 908 l 416 1075 "},">":{"x_min":147,"x_max":1016,"ha":1164,"o":"m 147 659 l 147 829 l 1016 515 l 1016 354 l 147 41 l 147 210 l 801 434 l 147 659 "},"v":{"x_min":87,"x_max":942,"ha":905,"o":"m 87 760 l 310 760 l 409 229 l 695 760 l 942 760 l 495 0 l 238 0 l 87 760 "},"û":{"x_min":83,"x_max":946,"ha":989,"o":"m 93 295 l 183 760 l 426 760 l 349 364 q 337 298 341 325 q 333 255 333 270 q 357 188 333 212 q 425 165 381 165 q 554 223 500 165 q 629 385 609 281 l 702 760 l 946 760 l 799 0 l 554 0 l 576 110 q 445 12 514 45 q 300 -20 376 -20 q 140 34 197 -20 q 83 190 83 89 q 85 240 83 214 q 93 295 88 266 m 516 1111 l 694 1111 l 818 856 l 697 856 l 591 1008 l 427 856 l 294 856 l 516 1111 "},"Ò":{"x_min":50,"x_max":1130,"ha":1181,"o":"m 854 597 q 800 779 854 717 q 644 842 746 842 q 416 720 508 842 q 325 414 325 598 q 378 233 325 298 q 527 169 432 169 q 666 201 605 169 q 769 299 726 234 q 831 438 809 361 q 854 597 854 516 m 681 1031 q 1006 918 883 1031 q 1130 625 1130 806 q 1092 391 1130 501 q 982 194 1054 281 q 774 33 894 86 q 496 -20 654 -20 q 172 91 295 -20 q 50 385 50 203 q 87 619 50 509 q 197 817 124 729 q 404 978 283 925 q 681 1031 524 1031 m 719 1288 l 817 1109 l 696 1109 l 540 1288 l 719 1288 "},"Ꙣ":{"x_min":-35.953125,"x_max":1588.390625,"ha":1528,"o":"m 428 197 l 710 197 l 830 815 l 611 815 l 599 753 q 428 197 512 316 m 120 197 q 233 313 200 244 q 351 821 265 378 l 388 1012 l 1588 1012 l 1550 815 l 1091 815 l 971 197 l 1115 197 l 1034 -217 l 836 -217 l 878 0 l 203 0 l 161 -217 l -35 -217 l 44 197 l 120 197 "},"Ꙑ":{"x_min":128.1875,"x_max":1685.109375,"ha":1714,"o":"m 1424 1013 l 1685 1013 l 1487 0 l 1227 0 l 1424 1013 m 599 177 l 752 177 q 935 304 910 177 q 938 336 938 321 q 801 429 938 429 l 648 429 l 599 177 m 166 1012 l 761 1012 l 687 626 l 859 626 q 1206 391 1206 626 q 1198 312 1206 354 q 737 0 1136 0 l 303 0 l 462 815 l 128 815 l 166 1012 "},"&":{"x_min":39,"x_max":1130,"ha":1211,"o":"m 595 620 l 796 366 q 869 469 839 409 q 919 607 900 528 l 1130 607 q 1046 391 1100 488 q 911 218 992 294 l 1085 0 l 788 0 l 731 71 q 571 2 651 25 q 407 -20 490 -20 q 140 63 241 -20 q 39 281 39 146 q 103 470 39 384 q 305 633 168 556 q 278 693 287 663 q 270 756 270 724 q 372 953 270 876 q 636 1031 474 1031 q 763 1021 698 1031 q 896 992 828 1011 l 860 803 q 748 851 801 835 q 641 867 694 867 q 548 842 582 867 q 515 776 515 818 q 535 711 515 750 q 595 620 555 671 m 390 503 q 308 424 336 469 q 280 327 280 378 q 331 204 280 254 q 460 155 383 155 q 541 169 501 155 q 621 212 581 183 l 390 503 "},"Ð":{"x_min":-2.71875,"x_max":1116,"ha":1174,"o":"m 472 816 l 433 612 l 600 612 l 565 436 l 398 436 l 351 197 l 444 197 q 735 299 628 197 q 842 576 842 402 q 771 755 842 695 q 563 816 701 816 l 472 816 m 249 1013 l 523 1013 q 818 989 720 1013 q 982 911 917 966 q 1082 777 1048 856 q 1116 600 1116 698 q 1058 341 1116 464 q 898 136 1001 219 q 690 31 809 62 q 326 0 572 0 l 52 0 l 136 436 l -2 436 l 32 612 l 171 612 l 249 1013 "},"I":{"x_min":29,"x_max":487.109375,"ha":517,"o":"m 226 1013 l 487 1013 l 289 0 l 29 0 l 226 1013 "},"G":{"x_min":50,"x_max":1080,"ha":1140,"o":"m 945 74 q 740 3 846 26 q 512 -20 633 -20 q 173 89 296 -20 q 50 388 50 199 q 88 618 50 511 q 203 815 127 726 q 424 977 297 923 q 715 1031 551 1031 q 898 1012 806 1031 q 1080 955 990 993 l 1040 746 q 878 818 957 794 q 719 842 799 842 q 434 725 544 842 q 325 425 325 608 q 389 236 325 303 q 569 169 453 169 q 645 174 607 169 q 722 190 683 179 l 760 387 l 601 387 l 634 562 l 1040 562 l 945 74 "},"`":{"x_min":182,"x_max":516,"ha":695,"o":"m 374 1111 l 516 856 l 382 856 l 182 1111 l 374 1111 "},"·":{"x_min":117,"x_max":413.15625,"ha":528,"o":"m 169 614 l 413 614 l 361 352 l 117 352 l 169 614 "},"r":{"x_min":43,"x_max":757,"ha":685,"o":"m 714 553 q 658 574 689 567 q 592 582 628 582 q 438 522 500 582 q 355 350 377 462 l 286 0 l 43 0 l 191 760 l 435 760 l 408 629 q 528 739 456 701 q 689 778 601 778 q 718 776 702 778 q 757 772 734 775 l 714 553 "},"₤":{"x_min":9.5,"x_max":959.6875,"ha":966,"o":"m 468 305 l 444 180 l 811 180 l 776 0 l 9 0 l 44 180 l 197 180 l 221 305 l 81 305 l 111 467 l 255 467 l 265 526 l 120 526 l 151 688 l 296 688 q 432 946 332 864 q 720 1030 534 1030 q 843 1021 783 1030 q 959 994 902 1012 l 922 800 q 834 838 882 825 q 739 852 787 852 q 607 811 654 852 q 543 688 562 771 l 783 688 l 752 526 l 513 526 l 502 467 l 744 467 l 713 305 l 468 305 "},"¿":{"x_min":52,"x_max":678,"ha":806,"o":"m 367 672 l 611 672 l 604 637 q 565 540 594 582 q 447 429 536 499 l 396 388 q 318 312 342 347 q 295 240 295 276 q 322 180 295 201 q 400 160 349 160 q 523 183 455 160 q 670 250 592 206 l 628 37 q 470 -4 542 8 q 334 -18 399 -18 q 126 40 201 -18 q 52 199 52 98 q 87 343 52 279 q 210 476 123 407 l 261 517 q 336 587 318 561 q 361 641 355 612 l 367 672 m 631 772 l 386 772 l 433 1013 l 678 1013 l 631 772 "},"ý":{"x_min":0,"x_max":954,"ha":905,"o":"m 91 760 l 320 760 l 425 233 l 694 760 l 954 760 l 473 -72 q 324 -256 392 -212 q 147 -300 255 -300 l 0 -300 l 25 -141 l 101 -141 q 194 -120 161 -141 q 252 -50 227 -100 l 275 -9 l 91 760 m 655 1111 l 854 1111 l 557 856 l 421 856 l 655 1111 "},"x":{"x_min":-57,"x_max":931.84375,"ha":896,"o":"m 307 388 l 105 760 l 358 760 l 470 534 l 668 760 l 931 760 l 585 390 l 797 0 l 544 0 l 425 240 l 206 0 l -57 0 l 307 388 "},"è":{"x_min":50,"x_max":889,"ha":942,"o":"m 873 351 l 865 313 l 297 313 q 296 301 297 308 q 296 289 296 293 q 340 177 296 214 q 473 141 384 141 q 635 164 550 141 q 814 233 720 187 l 776 44 q 599 -4 687 11 q 421 -20 512 -20 q 146 62 243 -20 q 50 294 50 144 q 80 462 50 381 q 170 612 111 544 q 337 735 240 693 q 553 778 435 778 q 798 695 707 778 q 889 475 889 613 q 885 417 889 447 q 873 351 881 387 m 643 463 q 646 480 645 471 q 648 498 648 490 q 615 585 648 553 q 527 617 583 617 q 406 577 456 617 q 330 463 356 538 l 643 463 m 528 1111 l 670 856 l 536 856 l 336 1111 l 528 1111 "},"º":{"x_min":63.90625,"x_max":757,"ha":783,"o":"m 487 1031 q 684 969 611 1031 q 757 804 757 908 q 656 564 757 655 q 392 473 556 473 q 194 535 268 473 q 121 699 121 597 q 222 939 121 847 q 487 1031 323 1031 m 90 388 l 648 388 l 622 252 l 63 252 l 90 388 m 471 916 q 360 853 404 916 q 316 694 316 790 q 339 615 316 642 q 408 588 363 588 q 519 650 475 588 q 564 809 564 713 q 539 888 564 860 q 471 916 515 916 "},"Ø":{"x_min":-65.109375,"x_max":1243.9375,"ha":1181,"o":"m 810 765 q 741 822 783 803 q 645 842 700 842 q 417 720 508 842 q 326 414 326 599 q 328 364 326 399 q 328 360 328 364 l 810 765 m 106 174 q 64 277 78 224 q 50 385 50 331 q 87 619 50 509 q 197 817 124 729 q 404 978 284 925 q 681 1031 523 1031 q 861 1004 782 1031 q 999 925 939 978 l 1174 1071 l 1243 987 l 1068 843 q 1114 736 1099 791 q 1130 624 1130 681 q 1092 390 1130 500 q 982 193 1054 280 q 774 32 894 85 q 496 -20 653 -20 q 317 7 397 -20 q 174 91 237 35 l 4 -53 l -65 30 l 106 174 m 365 251 q 433 190 391 211 q 527 169 474 169 q 665 201 605 169 q 768 299 726 234 q 832 439 809 361 q 855 596 855 517 q 850 649 855 613 q 848 657 849 654 l 365 251 "},"÷":{"x_min":147,"x_max":1016,"ha":1164,"o":"m 478 268 l 686 268 l 686 58 l 478 58 l 478 268 m 478 812 l 686 812 l 686 602 l 478 602 l 478 812 m 147 515 l 1016 515 l 1016 355 l 147 355 l 147 515 "},"h":{"x_min":43,"x_max":908,"ha":989,"o":"m 895 462 l 806 0 l 562 0 l 639 396 q 651 461 647 434 q 656 504 656 488 q 632 571 656 547 q 563 595 608 595 q 434 536 488 595 q 359 373 380 477 l 286 0 l 43 0 l 248 1055 l 492 1055 l 412 648 q 547 746 479 714 q 689 778 615 778 q 851 723 794 778 q 908 568 908 668 q 904 520 908 546 q 895 462 901 493 "},"Ꙇ":{"x_min":91.296875,"x_max":533.765625,"ha":605,"o":"m 486 1012 l 363 376 q 379 242 346 288 q 493 197 411 197 l 533 197 l 495 0 l 442 0 q 149 93 234 0 q 102 376 65 187 l 225 1012 l 486 1012 "},".":{"x_min":64,"x_max":360.15625,"ha":528,"o":"m 116 262 l 360 262 l 309 0 l 64 0 l 116 262 "},"₱":{"x_min":29.15625,"x_max":968.5,"ha":966,"o":"m 636 602 l 373 602 l 362 540 l 493 540 q 621 583 576 540 q 636 602 629 592 m 392 712 l 381 651 l 658 651 q 665 710 665 678 l 665 712 l 392 712 m 144 651 l 155 712 l 98 712 l 107 761 l 164 761 l 208 1012 l 601 1012 q 827 940 746 1012 q 908 761 900 873 l 968 761 l 959 712 l 908 712 q 900 651 906 681 l 950 651 l 942 602 l 887 602 q 881 586 885 594 q 804 461 854 514 q 673 377 749 403 q 483 351 598 351 l 327 351 l 265 0 l 29 0 l 135 602 l 80 602 l 90 651 l 144 651 m 401 761 l 655 761 q 634 794 647 780 q 541 823 601 823 l 412 823 l 401 761 "},";":{"x_min":-48,"x_max":449.84375,"ha":555,"o":"m 109 262 l 353 262 l 313 55 l 96 -198 l -48 -198 l 68 55 l 109 262 m 205 760 l 449 760 l 399 498 l 155 498 l 205 760 "},"f":{"x_min":69,"x_max":749.65625,"ha":604,"o":"m 749 1055 l 717 896 l 584 896 q 509 877 533 896 q 477 813 486 858 l 466 760 l 671 760 l 638 586 l 432 586 l 318 0 l 75 0 l 188 586 l 69 586 l 102 760 l 222 760 l 232 812 q 337 996 257 938 q 563 1055 416 1055 l 749 1055 "},"ꙇ":{"x_min":92.390625,"x_max":452.375,"ha":612,"o":"m 189 759 l 433 759 l 346 311 q 348 189 328 220 q 437 158 371 151 l 452 159 l 421 0 l 328 -1 q 131 78 191 -3 q 102 311 72 160 l 189 759 "},"A":{"x_min":-90,"x_max":960,"ha":1075,"o":"m 682 184 l 278 184 l 177 0 l -90 0 l 482 1013 l 780 1013 l 960 0 l 711 0 l 682 184 m 376 368 l 648 368 l 587 758 l 376 368 "},"6":{"x_min":69,"x_max":916.46875,"ha":966,"o":"m 501 500 q 375 436 424 500 q 326 272 326 372 q 356 178 326 212 q 441 145 386 145 q 567 207 517 145 q 617 365 617 270 q 587 465 617 430 q 501 500 557 500 m 916 986 l 879 799 q 766 844 821 829 q 656 859 711 859 q 452 791 530 859 q 357 600 374 723 q 466 651 410 634 q 585 668 522 668 q 789 594 710 668 q 869 405 869 520 q 746 98 869 218 q 431 -21 624 -21 q 163 77 258 -21 q 69 354 69 175 q 111 618 69 492 q 229 835 153 744 q 421 981 310 932 q 670 1030 532 1030 q 794 1019 734 1030 q 916 986 854 1008 "},"O":{"x_min":50,"x_max":1130,"ha":1181,"o":"m 854 597 q 800 779 854 717 q 644 842 746 842 q 416 720 508 842 q 325 414 325 598 q 378 233 325 298 q 527 169 432 169 q 666 201 605 169 q 769 299 726 234 q 831 438 809 361 q 854 597 854 516 m 681 1031 q 1006 918 883 1031 q 1130 625 1130 806 q 1092 391 1130 501 q 982 194 1054 281 q 774 33 894 86 q 496 -20 654 -20 q 172 91 295 -20 q 50 385 50 203 q 87 619 50 509 q 197 817 124 729 q 404 978 283 925 q 681 1031 524 1031 "},"n":{"x_min":43,"x_max":908,"ha":989,"o":"m 895 462 l 806 0 l 562 0 l 639 396 q 651 461 647 434 q 656 504 656 488 q 632 571 656 547 q 563 595 608 595 q 434 536 488 595 q 359 373 380 477 l 286 0 l 43 0 l 191 760 l 435 760 l 412 648 q 547 746 479 714 q 689 778 615 778 q 851 723 794 778 q 908 568 908 668 q 904 520 908 546 q 895 462 901 493 "},"3":{"x_min":0,"x_max":885,"ha":966,"o":"m 656 546 q 775 475 732 528 q 818 343 818 421 q 684 77 818 174 q 318 -20 551 -20 q 150 -7 229 -20 q 0 31 70 5 l 38 232 q 170 177 99 196 q 312 158 241 158 q 494 201 427 158 q 561 317 561 244 q 510 407 561 377 q 356 438 459 438 l 253 438 l 286 606 l 396 606 q 564 644 502 606 q 627 749 627 683 q 583 827 627 800 q 458 855 540 855 q 333 840 401 855 q 191 797 265 825 l 229 988 q 386 1020 309 1009 q 540 1031 464 1031 q 798 974 712 1031 q 885 804 885 917 q 825 636 885 703 q 656 546 765 568 "},"9":{"x_min":57.90625,"x_max":906,"ha":966,"o":"m 57 23 l 93 210 q 207 164 152 179 q 317 150 262 150 q 521 217 443 150 q 616 408 599 285 q 508 357 563 374 q 389 341 452 341 q 185 414 264 341 q 106 603 106 488 q 228 910 106 790 q 543 1030 350 1030 q 811 931 716 1030 q 906 654 906 833 q 864 391 906 517 q 745 173 822 265 q 553 27 664 76 q 305 -21 443 -21 q 179 -10 241 -21 q 57 23 118 1 m 471 509 q 598 572 548 509 q 648 736 648 636 q 618 831 648 798 q 533 865 588 865 q 406 801 457 865 q 356 643 356 738 q 385 543 356 578 q 471 509 415 509 "},"ꙣ":{"x_min":-14.25,"x_max":1342.875,"ha":1306,"o":"m 733 585 l 562 585 l 558 564 q 425 173 510 316 l 653 173 l 733 585 m 96 173 q 229 284 179 199 q 325 615 278 370 l 353 759 l 1342 759 l 1313 609 l 980 609 l 895 173 l 1022 173 l 951 -191 l 777 -191 l 815 0 l 196 0 l 159 -191 l -14 -191 l 56 173 l 96 173 "},"l":{"x_min":43,"x_max":492.15625,"ha":476,"o":"m 248 1055 l 492 1055 l 286 0 l 43 0 l 248 1055 "},"¤":{"x_min":50.625,"x_max":836,"ha":884,"o":"m 295 181 l 154 41 l 50 145 l 191 286 q 162 355 172 319 q 153 434 153 391 q 163 513 153 477 q 193 581 173 550 l 52 720 l 155 825 l 296 684 q 365 715 328 705 q 443 725 402 725 q 516 715 480 725 q 592 687 553 706 l 732 827 l 836 723 l 695 583 q 724 508 714 545 q 734 434 734 471 q 724 356 734 391 q 693 288 714 320 l 834 148 l 729 44 l 589 184 q 522 153 558 163 q 443 144 486 144 q 367 153 404 144 q 295 181 330 162 m 443 286 q 548 329 505 286 q 592 434 592 372 q 548 539 592 496 q 443 583 505 583 q 338 539 381 583 q 295 434 295 496 q 337 328 295 371 q 443 286 380 286 "},"4":{"x_min":-1,"x_max":881.984375,"ha":966,"o":"m 572 790 l 212 374 l 490 374 l 572 790 m 565 1013 l 863 1013 l 737 374 l 881 374 l 846 185 l 701 185 l 666 0 l 418 0 l 454 185 l -1 185 l 43 408 l 565 1013 "},"p":{"x_min":-14,"x_max":940,"ha":994,"o":"m 308 109 l 230 -289 l -14 -289 l 190 760 l 434 760 l 412 648 q 528 746 467 715 q 662 778 589 778 q 865 696 790 778 q 940 474 940 615 q 913 304 940 387 q 838 153 887 221 q 699 24 777 68 q 532 -20 621 -20 q 400 11 454 -20 q 308 109 345 42 m 563 602 q 410 515 469 602 q 350 289 350 428 q 384 191 350 227 q 477 156 418 156 q 629 241 569 156 q 689 459 689 326 q 656 565 689 529 q 563 602 624 602 "},"à":{"x_min":24,"x_max":849,"ha":937,"o":"m 457 342 q 320 313 366 342 q 274 230 274 285 q 301 164 274 188 q 377 141 328 141 q 501 186 451 141 q 568 314 552 231 l 574 342 l 457 342 m 836 433 l 752 0 l 509 0 l 529 111 q 403 12 469 44 q 258 -20 336 -20 q 87 35 150 -20 q 24 186 24 91 q 136 409 24 332 q 460 486 248 486 l 603 486 l 606 505 q 608 518 608 514 q 608 526 608 523 q 566 594 608 571 q 440 617 524 617 q 294 601 365 617 q 158 555 223 586 l 194 740 q 350 768 270 758 q 515 778 430 778 q 766 719 684 778 q 849 543 849 661 q 845 492 849 520 q 836 433 842 465 m 496 1111 l 638 856 l 504 856 l 304 1111 l 496 1111 "},"Ü":{"x_min":94,"x_max":1098.453125,"ha":1128,"o":"m 226 1013 l 487 1013 l 369 406 q 359 348 362 373 q 356 304 356 323 q 392 204 356 237 q 498 172 427 172 q 644 225 593 172 q 719 405 694 278 l 837 1013 l 1098 1013 l 980 405 q 813 80 936 181 q 460 -20 690 -20 q 187 57 281 -20 q 94 280 94 134 q 97 335 94 305 q 108 405 100 365 l 226 1013 m 481 1288 l 642 1288 l 610 1121 l 450 1121 l 481 1288 m 749 1288 l 911 1288 l 877 1121 l 718 1121 l 749 1288 "},"ó":{"x_min":50,"x_max":904,"ha":954,"o":"m 520 604 q 365 518 426 604 q 304 301 304 433 q 336 191 304 229 q 433 154 369 154 q 588 239 527 154 q 650 458 650 325 q 617 566 650 529 q 520 604 584 604 m 540 778 q 807 691 710 778 q 904 457 904 605 q 873 289 904 370 q 784 141 842 208 q 621 20 715 61 q 410 -20 526 -20 q 146 66 243 -20 q 50 300 50 152 q 81 468 50 386 q 170 617 112 550 q 332 737 238 696 q 540 778 426 778 m 680 1111 l 879 1111 l 582 856 l 446 856 l 680 1111 "},"₴":{"x_min":21.703125,"x_max":1171.96875,"ha":1194,"o":"m 769 442 q 1121 442 769 442 l 1096 310 l 415 310 q 404 279 408 296 q 434 198 394 226 q 560 169 474 169 q 739 195 644 169 q 942 273 835 221 l 899 52 q 694 -1 795 16 q 497 -19 594 -19 q 210 62 293 -19 q 159 310 126 143 l 21 310 l 47 442 l 210 442 q 269 507 236 480 q 381 570 312 543 q 72 570 381 570 l 97 701 l 791 701 q 804 735 800 716 q 775 815 815 790 q 641 841 735 841 q 487 822 571 841 q 314 766 404 803 l 356 980 q 545 1018 455 1005 q 720 1030 636 1030 q 985 949 903 1030 q 1037 716 1066 868 q 1034 701 1035 709 l 1171 701 l 1146 570 l 973 570 q 929 524 958 548 q 769 442 868 473 "}}}
